<?xml version="1.0" encoding="UTF-8" standalone="no"?>
<svg
   xmlns:dc="http://purl.org/dc/elements/1.1/"
   xmlns:cc="http://creativecommons.org/ns#"
   xmlns:rdf="http://www.w3.org/1999/02/22-rdf-syntax-ns#"
   xmlns:svg="http://www.w3.org/2000/svg"
   xmlns="http://www.w3.org/2000/svg"
   xmlns:sodipodi="http://sodipodi.sourceforge.net/DTD/sodipodi-0.dtd"
   xmlns:inkscape="http://www.inkscape.org/namespaces/inkscape"
   width="91pt"
   height="22pt"
   viewBox="0 0 91 22"
   version="1.1"
   id="svg3444"
   inkscape:version="0.48.5 r10040"
   sodipodi:docname="328_7segs_wide_v2.1_with_squarepadded_for_stencil_otherwise_dont_use.STP.svg-closedpaths.svg">
  <metadata
     id="metadata3547">
    <rdf:RDF>
      <cc:Work
         rdf:about="">
        <dc:format>image/svg+xml</dc:format>
        <dc:type
           rdf:resource="http://purl.org/dc/dcmitype/StillImage" />
      </cc:Work>
    </rdf:RDF>
  </metadata>
  <defs
     id="defs3545" />
  <sodipodi:namedview
     pagecolor="#ffffff"
     bordercolor="#666666"
     borderopacity="1"
     objecttolerance="10"
     gridtolerance="10"
     guidetolerance="10"
     inkscape:pageopacity="0"
     inkscape:pageshadow="2"
     inkscape:window-width="1276"
     inkscape:window-height="756"
     id="namedview3543"
     showgrid="false"
     inkscape:zoom="11.064805"
     inkscape:cx="40.576513"
     inkscape:cy="7.0864526"
     inkscape:window-x="4"
     inkscape:window-y="0"
     inkscape:window-maximized="1"
     inkscape:current-layer="svg3444" />
  <path
     inkscape:connector-curvature="0"
     id="path3447"
     d="m 51.29602,17.294652 1.302491,0 0,-1.870554 -1.302491,0 z"
     style="fill:none;stroke:#000000;stroke-width:0.01966206;stroke-miterlimit:4;stroke-opacity:1;stroke-dasharray:none" />
  <path
     inkscape:connector-curvature="0"
     id="path3449"
     d="m 54.98352,17.294652 1.302491,0 0,-1.870554 -1.302491,0 z"
     style="fill:none;stroke:#000000;stroke-width:0.01966206;stroke-miterlimit:4;stroke-opacity:1;stroke-dasharray:none" />
  <path
     inkscape:connector-curvature="0"
     id="path3451"
     d="m 62.096801,17.294652 1.302492,0 0,-1.870554 -1.302492,0 z"
     style="fill:none;stroke:#000000;stroke-width:0.01966205;stroke-miterlimit:4;stroke-opacity:1;stroke-dasharray:none" />
  <path
     inkscape:connector-curvature="0"
     id="path3453"
     d="m 65.784301,17.294652 1.302492,0 0,-1.870554 -1.302492,0 z"
     style="fill:none;stroke:#000000;stroke-width:0.01966205;stroke-miterlimit:4;stroke-opacity:1;stroke-dasharray:none" />
  <path
     inkscape:connector-curvature="0"
     id="path3455"
     d="m 71.096801,17.294652 1.302492,0 0,-1.870554 -1.302492,0 z"
     style="fill:none;stroke:#000000;stroke-width:0.01966205;stroke-miterlimit:4;stroke-opacity:1;stroke-dasharray:none" />
  <path
     inkscape:connector-curvature="0"
     id="path3457"
     d="m 74.784301,17.294652 1.302492,0 0,-1.870554 -1.302492,0 z"
     style="fill:none;stroke:#000000;stroke-width:0.01966205;stroke-miterlimit:4;stroke-opacity:1;stroke-dasharray:none" />
  <path
     inkscape:connector-curvature="0"
     id="path3459"
     d="m 81.897583,17.294652 1.302491,0 0,-1.870554 -1.302491,0 z"
     style="fill:none;stroke:#000000;stroke-width:0.01966206;stroke-miterlimit:4;stroke-opacity:1;stroke-dasharray:none" />
  <path
     inkscape:connector-curvature="0"
     id="path3461"
     d="m 85.581176,17.294652 1.302491,0 0,-1.870554 -1.302491,0 z"
     style="fill:none;stroke:#000000;stroke-width:0.01966206;stroke-miterlimit:4;stroke-opacity:1;stroke-dasharray:none" />
  <path
     inkscape:connector-curvature="0"
     id="path3463"
     d="m 8.1827387,8.2946524 1.3024916,0 0,-1.8705548 -1.3024916,0 z"
     style="fill:none;stroke:#000000;stroke-width:0.01966206;stroke-miterlimit:4;stroke-opacity:1;stroke-dasharray:none" />
  <path
     inkscape:connector-curvature="0"
     id="path3465"
     d="m 4.4952387,8.2946524 1.3024916,0 0,-1.8705548 -1.3024916,0 z"
     style="fill:none;stroke:#000000;stroke-width:0.01966206;stroke-miterlimit:4;stroke-opacity:1;stroke-dasharray:none" />
  <path
     inkscape:connector-curvature="0"
     id="path3467"
     d="m 4.4952387,2.8962149 1.3024916,0 0,-1.8705548 -1.3024916,0 z"
     style="fill:none;stroke:#000000;stroke-width:0.01966205;stroke-miterlimit:4;stroke-opacity:1;stroke-dasharray:none" />
  <path
     inkscape:connector-curvature="0"
     id="path3469"
     d="m 8.1987548,2.8836113 1.2704594,0 0,-1.8453476 -1.2704594,0 z"
     style="fill:none;stroke:#000000;stroke-width:0.01928748;stroke-miterlimit:4;stroke-opacity:1;stroke-dasharray:none" />
  <path
     inkscape:connector-curvature="0"
     id="path3471"
     d="m 24.947173,7.8968437 0.896498,0 0,-0.1921244 -0.896498,0 z"
     style="fill:none;stroke:#000000;stroke-width:0.00870529;stroke-miterlimit:4;stroke-opacity:1;stroke-dasharray:none" />
  <path
     inkscape:connector-curvature="0"
     id="path3473"
     d="m 24.947173,9.3148122 0.896498,0 0,-0.1921244 -0.896498,0 z"
     style="fill:none;stroke:#000000;stroke-width:0.00870528;stroke-miterlimit:4;stroke-opacity:1;stroke-dasharray:none" />
  <path
     inkscape:connector-curvature="0"
     id="path3475"
     d="m 24.947173,10.732781 0.896498,0 0,-0.192125 -0.896498,0 z"
     style="fill:none;stroke:#000000;stroke-width:0.00870529;stroke-miterlimit:4;stroke-opacity:1;stroke-dasharray:none" />
  <path
     inkscape:connector-curvature="0"
     id="path3477"
     d="m 24.947173,12.15075 0.896498,0 0,-0.192125 -0.896498,0 z"
     style="fill:none;stroke:#000000;stroke-width:0.00870529;stroke-miterlimit:4;stroke-opacity:1;stroke-dasharray:none" />
  <path
     inkscape:connector-curvature="0"
     id="path3479"
     d="m 24.947173,13.568718 0.896498,0 0,-0.192124 -0.896498,0 z"
     style="fill:none;stroke:#000000;stroke-width:0.00870528;stroke-miterlimit:4;stroke-opacity:1;stroke-dasharray:none" />
  <path
     inkscape:connector-curvature="0"
     id="path3481"
     d="m 24.947173,14.986687 0.896498,0 0,-0.192124 -0.896498,0 z"
     style="fill:none;stroke:#000000;stroke-width:0.00870528;stroke-miterlimit:4;stroke-opacity:1;stroke-dasharray:none" />
  <path
     inkscape:connector-curvature="0"
     id="path3483"
     d="m 24.947173,16.396844 0.896498,0 0,-0.192125 -0.896498,0 z"
     style="fill:none;stroke:#000000;stroke-width:0.00870529;stroke-miterlimit:4;stroke-opacity:1;stroke-dasharray:none" />
  <path
     inkscape:connector-curvature="0"
     id="path3485"
     d="m 24.947173,17.814812 0.896498,0 0,-0.192124 -0.896498,0 z"
     style="fill:none;stroke:#000000;stroke-width:0.00870528;stroke-miterlimit:4;stroke-opacity:1;stroke-dasharray:none" />
  <path
     inkscape:connector-curvature="0"
     id="path3487"
     d="m 38.539141,17.814812 0.896499,0 0,-0.192124 -0.896499,0 z"
     style="fill:none;stroke:#000000;stroke-width:0.00870529;stroke-miterlimit:4;stroke-opacity:1;stroke-dasharray:none" />
  <path
     inkscape:connector-curvature="0"
     id="path3489"
     d="m 38.539141,16.396844 0.896499,0 0,-0.192125 -0.896499,0 z"
     style="fill:none;stroke:#000000;stroke-width:0.00870529;stroke-miterlimit:4;stroke-opacity:1;stroke-dasharray:none" />
  <path
     inkscape:connector-curvature="0"
     id="path3491"
     d="m 38.539141,14.986687 0.896499,0 0,-0.192124 -0.896499,0 z"
     style="fill:none;stroke:#000000;stroke-width:0.00870529;stroke-miterlimit:4;stroke-opacity:1;stroke-dasharray:none" />
  <path
     inkscape:connector-curvature="0"
     id="path3493"
     d="m 38.539141,13.568718 0.896499,0 0,-0.192124 -0.896499,0 z"
     style="fill:none;stroke:#000000;stroke-width:0.00870529;stroke-miterlimit:4;stroke-opacity:1;stroke-dasharray:none" />
  <path
     inkscape:connector-curvature="0"
     id="path3495"
     d="m 38.539141,12.15075 0.896499,0 0,-0.192125 -0.896499,0 z"
     style="fill:none;stroke:#000000;stroke-width:0.00870529;stroke-miterlimit:4;stroke-opacity:1;stroke-dasharray:none" />
  <path
     inkscape:connector-curvature="0"
     id="path3497"
     d="m 38.539141,10.732781 0.896499,0 0,-0.192125 -0.896499,0 z"
     style="fill:none;stroke:#000000;stroke-width:0.00870529;stroke-miterlimit:4;stroke-opacity:1;stroke-dasharray:none" />
  <path
     inkscape:connector-curvature="0"
     id="path3499"
     d="m 38.539141,9.3148122 0.896499,0 0,-0.1921244 -0.896499,0 z"
     style="fill:none;stroke:#000000;stroke-width:0.00870529;stroke-miterlimit:4;stroke-opacity:1;stroke-dasharray:none" />
  <path
     inkscape:connector-curvature="0"
     id="path3501"
     d="m 38.539141,7.8968437 0.896499,0 0,-0.1921244 -0.896499,0 z"
     style="fill:none;stroke:#000000;stroke-width:0.00870529;stroke-miterlimit:4;stroke-opacity:1;stroke-dasharray:none" />
  <path
     inkscape:connector-curvature="0"
     id="path3503"
     d="m 27.134406,20.009859 0.192125,0 0,-0.896499 -0.192125,0 z"
     style="fill:none;stroke:#000000;stroke-width:0.00870529;stroke-miterlimit:4;stroke-opacity:1;stroke-dasharray:none" />
  <path
     inkscape:connector-curvature="0"
     id="path3505"
     d="m 28.552375,20.009859 0.192125,0 0,-0.896499 -0.192125,0 z"
     style="fill:none;stroke:#000000;stroke-width:0.00870529;stroke-miterlimit:4;stroke-opacity:1;stroke-dasharray:none" />
  <path
     inkscape:connector-curvature="0"
     id="path3507"
     d="m 29.970344,20.009859 0.192124,0 0,-0.896499 -0.192124,0 z"
     style="fill:none;stroke:#000000;stroke-width:0.00870529;stroke-miterlimit:4;stroke-opacity:1;stroke-dasharray:none" />
  <path
     inkscape:connector-curvature="0"
     id="path3509"
     d="m 31.388313,20.009859 0.192124,0 0,-0.896499 -0.192124,0 z"
     style="fill:none;stroke:#000000;stroke-width:0.00870529;stroke-miterlimit:4;stroke-opacity:1;stroke-dasharray:none" />
  <path
     inkscape:connector-curvature="0"
     id="path3511"
     d="m 32.798469,20.009859 0.192125,0 0,-0.896499 -0.192125,0 z"
     style="fill:none;stroke:#000000;stroke-width:0.00870529;stroke-miterlimit:4;stroke-opacity:1;stroke-dasharray:none" />
  <path
     inkscape:connector-curvature="0"
     id="path3513"
     d="m 34.216438,20.009859 0.192124,0 0,-0.896499 -0.192124,0 z"
     style="fill:none;stroke:#000000;stroke-width:0.00870529;stroke-miterlimit:4;stroke-opacity:1;stroke-dasharray:none" />
  <path
     inkscape:connector-curvature="0"
     id="path3515"
     d="m 35.634406,20.009859 0.192125,0 0,-0.896499 -0.192125,0 z"
     style="fill:none;stroke:#000000;stroke-width:0.00870529;stroke-miterlimit:4;stroke-opacity:1;stroke-dasharray:none" />
  <path
     inkscape:connector-curvature="0"
     id="path3517"
     d="m 37.081315,19.982645 0.142058,0 0,-0.842071 -0.142058,0 z"
     style="fill:none;stroke:#000000;stroke-width:0.00725481;stroke-miterlimit:4;stroke-opacity:1;stroke-dasharray:none" />
  <path
     inkscape:connector-curvature="0"
     id="path3519"
     d="m 37.081315,6.3828636 0.142058,0 0,-0.8420712 -0.142058,0 z"
     style="fill:none;stroke:#000000;stroke-width:0.0072548;stroke-miterlimit:4;stroke-opacity:1;stroke-dasharray:none" />
  <path
     inkscape:connector-curvature="0"
     id="path3521"
     d="m 35.634406,6.4100773 0.192125,0 0,-0.8964986 -0.192125,0 z"
     style="fill:none;stroke:#000000;stroke-width:0.00870529;stroke-miterlimit:4;stroke-opacity:1;stroke-dasharray:none" />
  <path
     inkscape:connector-curvature="0"
     id="path3523"
     d="m 34.216438,6.4100773 0.192124,0 0,-0.8964986 -0.192124,0 z"
     style="fill:none;stroke:#000000;stroke-width:0.00870528;stroke-miterlimit:4;stroke-opacity:1;stroke-dasharray:none" />
  <path
     inkscape:connector-curvature="0"
     id="path3525"
     d="m 32.798469,6.4100773 0.192125,0 0,-0.8964986 -0.192125,0 z"
     style="fill:none;stroke:#000000;stroke-width:0.00870529;stroke-miterlimit:4;stroke-opacity:1;stroke-dasharray:none" />
  <path
     inkscape:connector-curvature="0"
     id="path3527"
     d="m 31.388313,6.4100773 0.192124,0 0,-0.8964986 -0.192124,0 z"
     style="fill:none;stroke:#000000;stroke-width:0.00870528;stroke-miterlimit:4;stroke-opacity:1;stroke-dasharray:none" />
  <path
     inkscape:connector-curvature="0"
     id="path3529"
     d="m 29.970344,6.4100773 0.192124,0 0,-0.8964986 -0.192124,0 z"
     style="fill:none;stroke:#000000;stroke-width:0.00870528;stroke-miterlimit:4;stroke-opacity:1;stroke-dasharray:none" />
  <path
     inkscape:connector-curvature="0"
     id="path3531"
     d="m 28.552375,6.4100773 0.192125,0 0,-0.8964986 -0.192125,0 z"
     style="fill:none;stroke:#000000;stroke-width:0.00870529;stroke-miterlimit:4;stroke-opacity:1;stroke-dasharray:none" />
  <path
     inkscape:connector-curvature="0"
     id="path3533"
     d="m 27.134406,6.4100773 0.192125,0 0,-0.8964986 -0.192125,0 z"
     style="fill:none;stroke:#000000;stroke-width:0.00870529;stroke-miterlimit:4;stroke-opacity:1;stroke-dasharray:none" />
</svg>
