<?xml version="1.0" encoding="UTF-8" standalone="no"?>
<!-- Created with Inkscape (http://www.inkscape.org/) -->

<svg
   xmlns:dc="http://purl.org/dc/elements/1.1/"
   xmlns:cc="http://creativecommons.org/ns#"
   xmlns:rdf="http://www.w3.org/1999/02/22-rdf-syntax-ns#"
   xmlns:svg="http://www.w3.org/2000/svg"
   xmlns="http://www.w3.org/2000/svg"
   version="1.1"
   width="744.09448"
   height="1052.3622"
   id="svg4512">
  <defs
     id="defs4514" />
  <metadata
     id="metadata4517">
    <rdf:RDF>
      <cc:Work
         rdf:about="">
        <dc:format>image/svg+xml</dc:format>
        <dc:type
           rdf:resource="http://purl.org/dc/dcmitype/StillImage" />
        <dc:title></dc:title>
      </cc:Work>
    </rdf:RDF>
  </metadata>
  <g
     id="layer1">
    <g
       transform="matrix(1.25,0,0,1.25,289.9485,686.13168)"
       id="surface1">
      <path
         d="m 1.3010339,70.87759 1.6202471,0 0,-1.620247 -1.6202471,0 z"
         id="path5276"
         style="fill:none;stroke:#0000ff;stroke-width:0.08;stroke-miterlimit:4;stroke-opacity:1;stroke-dasharray:none" />
      <path
         d="m 5.6522839,70.87759 1.6202471,0 0,-1.620247 -1.6202471,0 z"
         id="path5278"
         style="fill:none;stroke:#0000ff;stroke-width:0.08;stroke-miterlimit:4;stroke-opacity:1;stroke-dasharray:none" />
      <path
         d="m 5.6522839,63.513629 1.6202471,0 0,-1.620247 -1.6202471,0 z"
         id="path5280"
         style="fill:none;stroke:#0000ff;stroke-width:0.08;stroke-miterlimit:4;stroke-opacity:1;stroke-dasharray:none" />
      <path
         d="m 1.3010339,63.513629 1.6202471,0 0,-1.620247 -1.6202471,0 z"
         id="path5282"
         style="fill:none;stroke:#0000ff;stroke-width:0.08;stroke-miterlimit:4;stroke-opacity:1;stroke-dasharray:none" />
      <path
         d="m 1.3010339,56.149668 1.6202471,0 0,-1.620247 -1.6202471,0 z"
         id="path5284"
         style="fill:none;stroke:#0000ff;stroke-width:0.08;stroke-miterlimit:4;stroke-opacity:1;stroke-dasharray:none" />
      <path
         d="m 5.6522839,56.149668 1.6202471,0 0,-1.620247 -1.6202471,0 z"
         id="path5286"
         style="fill:none;stroke:#0000ff;stroke-width:0.08;stroke-miterlimit:4;stroke-opacity:1;stroke-dasharray:none" />
      <path
         d="m 5.6522839,48.785707 1.6202471,0 0,-1.620247 -1.6202471,0 z"
         id="path5288"
         style="fill:none;stroke:#0000ff;stroke-width:0.08;stroke-miterlimit:4;stroke-opacity:1;stroke-dasharray:none" />
      <path
         d="m 1.3010339,48.785707 1.6202471,0 0,-1.620247 -1.6202471,0 z"
         id="path5290"
         style="fill:none;stroke:#0000ff;stroke-width:0.08;stroke-miterlimit:4;stroke-opacity:1;stroke-dasharray:none" />
      <path
         d="m 3.1110576,7.1431686 1.6202472,0 0,-1.6202471 -1.6202472,0 z"
         id="path5292"
         style="fill:none;stroke:#0000ff;stroke-width:0.08;stroke-miterlimit:4;stroke-opacity:1;stroke-dasharray:none" />
      <path
         d="m 3.1110576,2.7919192 1.6202472,0 0,-1.6202472 -1.6202472,0 z"
         id="path5294"
         style="fill:none;stroke:#0000ff;stroke-width:0.08;stroke-miterlimit:4;stroke-opacity:1;stroke-dasharray:none" />
      <path
         d="m 10.475018,2.7919192 1.620247,0 0,-1.6202472 -1.620247,0 z"
         id="path5296"
         style="fill:none;stroke:#0000ff;stroke-width:0.08;stroke-miterlimit:4;stroke-opacity:1;stroke-dasharray:none" />
      <path
         d="m 10.475018,7.1431686 1.620247,0 0,-1.6202471 -1.620247,0 z"
         id="path5298"
         style="fill:none;stroke:#0000ff;stroke-width:0.08;stroke-miterlimit:4;stroke-opacity:1;stroke-dasharray:none" />
      <path
         d="m 17.842974,7.1431686 1.620248,0 0,-1.6202471 -1.620248,0 z"
         id="path5300"
         style="fill:none;stroke:#0000ff;stroke-width:0.08;stroke-miterlimit:4;stroke-opacity:1;stroke-dasharray:none" />
      <path
         d="m 17.842974,2.7919192 1.620248,0 0,-1.6202472 -1.620248,0 z"
         id="path5302"
         style="fill:none;stroke:#0000ff;stroke-width:0.08;stroke-miterlimit:4;stroke-opacity:1;stroke-dasharray:none" />
      <path
         d="m 25.206937,2.7919192 1.620247,0 0,-1.6202472 -1.620247,0 z"
         id="path5304"
         style="fill:none;stroke:#0000ff;stroke-width:0.08;stroke-miterlimit:4;stroke-opacity:1;stroke-dasharray:none" />
      <path
         d="m 25.206937,7.1431686 1.620247,0 0,-1.6202471 -1.620247,0 z"
         id="path5306"
         style="fill:none;stroke:#0000ff;stroke-width:0.08;stroke-miterlimit:4;stroke-opacity:1;stroke-dasharray:none" />
      <path
         d="m 66.110281,4.5939516 1.620247,0 0,-1.6202471 -1.620247,0 z"
         id="path5308"
         style="fill:none;stroke:#0000ff;stroke-width:0.08;stroke-miterlimit:4;stroke-opacity:1;stroke-dasharray:none" />
      <path
         d="m 70.461531,4.5939516 1.620248,0 0,-1.6202471 -1.620248,0 z"
         id="path5310"
         style="fill:none;stroke:#0000ff;stroke-width:0.08;stroke-miterlimit:4;stroke-opacity:1;stroke-dasharray:none" />
      <path
         d="m 70.461531,11.961908 1.620248,0 0,-1.620248 -1.620248,0 z"
         id="path5312"
         style="fill:none;stroke:#0000ff;stroke-width:0.08;stroke-miterlimit:4;stroke-opacity:1;stroke-dasharray:none" />
      <path
         d="m 66.110281,11.961908 1.620247,0 0,-1.620248 -1.620247,0 z"
         id="path5314"
         style="fill:none;stroke:#0000ff;stroke-width:0.08;stroke-miterlimit:4;stroke-opacity:1;stroke-dasharray:none" />
      <path
         d="m 66.110281,19.325869 1.620247,0 0,-1.620248 -1.620247,0 z"
         id="path5316"
         style="fill:none;stroke:#0000ff;stroke-width:0.08;stroke-miterlimit:4;stroke-opacity:1;stroke-dasharray:none" />
      <path
         d="m 70.461531,19.325869 1.620248,0 0,-1.620248 -1.620248,0 z"
         id="path5318"
         style="fill:none;stroke:#0000ff;stroke-width:0.08;stroke-miterlimit:4;stroke-opacity:1;stroke-dasharray:none" />
      <path
         d="m 70.461531,26.68983 1.620248,0 0,-1.620248 -1.620248,0 z"
         id="path5320"
         style="fill:none;stroke:#0000ff;stroke-width:0.08;stroke-miterlimit:4;stroke-opacity:1;stroke-dasharray:none" />
      <path
         d="m 66.110281,26.68983 1.620247,0 0,-1.620248 -1.620247,0 z"
         id="path5322"
         style="fill:none;stroke:#0000ff;stroke-width:0.08;stroke-miterlimit:4;stroke-opacity:1;stroke-dasharray:none" />
      <path
         d="m 69.394696,68.336363 1.620247,0 0,-1.620247 -1.620247,0 z"
         id="path5324"
         style="fill:none;stroke:#0000ff;stroke-width:0.08;stroke-miterlimit:4;stroke-opacity:1;stroke-dasharray:none" />
      <path
         d="m 69.394696,72.691609 1.620247,0 0,-1.620247 -1.620247,0 z"
         id="path5326"
         style="fill:none;stroke:#0000ff;stroke-width:0.08;stroke-miterlimit:4;stroke-opacity:1;stroke-dasharray:none" />
      <path
         d="m 62.030736,72.691609 1.620247,0 0,-1.620247 -1.620247,0 z"
         id="path5328"
         style="fill:none;stroke:#0000ff;stroke-width:0.08;stroke-miterlimit:4;stroke-opacity:1;stroke-dasharray:none" />
      <path
         d="m 62.030736,68.336363 1.620247,0 0,-1.620247 -1.620247,0 z"
         id="path5330"
         style="fill:none;stroke:#0000ff;stroke-width:0.08;stroke-miterlimit:4;stroke-opacity:1;stroke-dasharray:none" />
      <path
         d="m 54.666774,68.336363 1.620247,0 0,-1.620247 -1.620247,0 z"
         id="path5332"
         style="fill:none;stroke:#0000ff;stroke-width:0.08;stroke-miterlimit:4;stroke-opacity:1;stroke-dasharray:none" />
      <path
         d="m 54.666774,72.691609 1.620247,0 0,-1.620247 -1.620247,0 z"
         id="path5334"
         style="fill:none;stroke:#0000ff;stroke-width:0.08;stroke-miterlimit:4;stroke-opacity:1;stroke-dasharray:none" />
      <path
         d="m 47.298817,72.691609 1.620248,0 0,-1.620247 -1.620248,0 z"
         id="path5336"
         style="fill:none;stroke:#0000ff;stroke-width:0.08;stroke-miterlimit:4;stroke-opacity:1;stroke-dasharray:none" />
      <path
         d="m 47.298817,68.336363 1.620248,0 0,-1.620247 -1.620248,0 z"
         id="path5338"
         style="fill:none;stroke:#0000ff;stroke-width:0.08;stroke-miterlimit:4;stroke-opacity:1;stroke-dasharray:none" />
      <path
         d="m 27.78353,59.191979 1.84119,0 0,-0.736476 -1.84119,0 z"
         id="path5340"
         style="fill:none;stroke:#0000ff;stroke-width:0.08;stroke-miterlimit:4;stroke-opacity:1;stroke-dasharray:none" />
      <path
         d="m 27.78353,56.870513 1.84119,0 0,-0.736476 -1.84119,0 z"
         id="path5342"
         style="fill:none;stroke:#0000ff;stroke-width:0.08;stroke-miterlimit:4;stroke-opacity:1;stroke-dasharray:none" />
      <path
         d="m 27.78353,54.553043 1.84119,0 0,-0.736476 -1.84119,0 z"
         id="path5344"
         style="fill:none;stroke:#0000ff;stroke-width:0.08;stroke-miterlimit:4;stroke-opacity:1;stroke-dasharray:none" />
      <path
         d="m 27.78353,52.231577 1.84119,0 0,-0.736476 -1.84119,0 z"
         id="path5346"
         style="fill:none;stroke:#0000ff;stroke-width:0.08;stroke-miterlimit:4;stroke-opacity:1;stroke-dasharray:none" />
      <path
         d="m 23.1406,52.231577 1.84119,0 0,-0.736476 -1.84119,0 z"
         id="path5348"
         style="fill:none;stroke:#0000ff;stroke-width:0.08;stroke-miterlimit:4;stroke-opacity:1;stroke-dasharray:none" />
      <path
         d="m 23.1406,54.553043 1.84119,0 0,-0.736476 -1.84119,0 z"
         id="path5350"
         style="fill:none;stroke:#0000ff;stroke-width:0.08;stroke-miterlimit:4;stroke-opacity:1;stroke-dasharray:none" />
      <path
         d="m 23.1406,56.870513 1.84119,0 0,-0.736476 -1.84119,0 z"
         id="path5352"
         style="fill:none;stroke:#0000ff;stroke-width:0.08;stroke-miterlimit:4;stroke-opacity:1;stroke-dasharray:none" />
      <path
         d="m 23.1406,59.191979 1.84119,0 0,-0.736476 -1.84119,0 z"
         id="path5354"
         style="fill:none;stroke:#0000ff;stroke-width:0.08;stroke-miterlimit:4;stroke-opacity:1;stroke-dasharray:none" />
      <path
         d="m 43.762087,22.368179 1.84119,0 0,-0.736476 -1.84119,0 z"
         id="path5356"
         style="fill:none;stroke:#0000ff;stroke-width:0.08;stroke-miterlimit:4;stroke-opacity:1;stroke-dasharray:none" />
      <path
         d="m 43.762087,20.046714 1.84119,0 0,-0.736476 -1.84119,0 z"
         id="path5358"
         style="fill:none;stroke:#0000ff;stroke-width:0.08;stroke-miterlimit:4;stroke-opacity:1;stroke-dasharray:none" />
      <path
         d="m 43.762087,17.729244 1.84119,0 0,-0.736476 -1.84119,0 z"
         id="path5360"
         style="fill:none;stroke:#0000ff;stroke-width:0.08;stroke-miterlimit:4;stroke-opacity:1;stroke-dasharray:none" />
      <path
         d="m 43.762087,15.407777 1.84119,0 0,-0.736476 -1.84119,0 z"
         id="path5362"
         style="fill:none;stroke:#0000ff;stroke-width:0.08;stroke-miterlimit:4;stroke-opacity:1;stroke-dasharray:none" />
      <path
         d="m 48.405019,15.407777 1.84119,0 0,-0.736476 -1.84119,0 z"
         id="path5364"
         style="fill:none;stroke:#0000ff;stroke-width:0.08;stroke-miterlimit:4;stroke-opacity:1;stroke-dasharray:none" />
      <path
         d="m 48.405019,17.729244 1.84119,0 0,-0.736476 -1.84119,0 z"
         id="path5366"
         style="fill:none;stroke:#0000ff;stroke-width:0.08;stroke-miterlimit:4;stroke-opacity:1;stroke-dasharray:none" />
      <path
         d="m 48.405019,20.046714 1.84119,0 0,-0.736476 -1.84119,0 z"
         id="path5368"
         style="fill:none;stroke:#0000ff;stroke-width:0.08;stroke-miterlimit:4;stroke-opacity:1;stroke-dasharray:none" />
      <path
         d="m 48.405019,22.368179 1.84119,0 0,-0.736476 -1.84119,0 z"
         id="path5370"
         style="fill:none;stroke:#0000ff;stroke-width:0.08;stroke-miterlimit:4;stroke-opacity:1;stroke-dasharray:none" />
      <path
         d="m 51.620469,46.209112 0.736476,0 0,-1.84119 -0.736476,0 z"
         id="path5372"
         style="fill:none;stroke:#0000ff;stroke-width:0.08;stroke-miterlimit:4;stroke-opacity:1;stroke-dasharray:none" />
      <path
         d="m 53.941933,46.209112 0.736476,0 0,-1.84119 -0.736476,0 z"
         id="path5374"
         style="fill:none;stroke:#0000ff;stroke-width:0.08;stroke-miterlimit:4;stroke-opacity:1;stroke-dasharray:none" />
      <path
         d="m 56.2634,46.209112 0.736476,0 0,-1.84119 -0.736476,0 z"
         id="path5376"
         style="fill:none;stroke:#0000ff;stroke-width:0.08;stroke-miterlimit:4;stroke-opacity:1;stroke-dasharray:none" />
      <path
         d="m 58.58087,46.209112 0.736476,0 0,-1.84119 -0.736476,0 z"
         id="path5378"
         style="fill:none;stroke:#0000ff;stroke-width:0.08;stroke-miterlimit:4;stroke-opacity:1;stroke-dasharray:none" />
      <path
         d="m 58.58087,50.848047 0.736476,0 0,-1.84119 -0.736476,0 z"
         id="path5380"
         style="fill:none;stroke:#0000ff;stroke-width:0.08;stroke-miterlimit:4;stroke-opacity:1;stroke-dasharray:none" />
      <path
         d="m 56.2634,50.848047 0.736476,0 0,-1.84119 -0.736476,0 z"
         id="path5382"
         style="fill:none;stroke:#0000ff;stroke-width:0.08;stroke-miterlimit:4;stroke-opacity:1;stroke-dasharray:none" />
      <path
         d="m 53.941933,50.848047 0.736476,0 0,-1.84119 -0.736476,0 z"
         id="path5384"
         style="fill:none;stroke:#0000ff;stroke-width:0.08;stroke-miterlimit:4;stroke-opacity:1;stroke-dasharray:none" />
      <path
         d="m 51.620469,50.848047 0.736476,0 0,-1.84119 -0.736476,0 z"
         id="path5386"
         style="fill:none;stroke:#0000ff;stroke-width:0.08;stroke-miterlimit:4;stroke-opacity:1;stroke-dasharray:none" />
      <path
         d="m 21.75707,29.491364 0.736476,0 0,-1.84119 -0.736476,0 z"
         id="path5388"
         style="fill:none;stroke:#0000ff;stroke-width:0.08;stroke-miterlimit:4;stroke-opacity:1;stroke-dasharray:none" />
      <path
         d="m 19.439599,29.491364 0.736476,0 0,-1.84119 -0.736476,0 z"
         id="path5390"
         style="fill:none;stroke:#0000ff;stroke-width:0.08;stroke-miterlimit:4;stroke-opacity:1;stroke-dasharray:none" />
      <path
         d="m 17.118134,29.491364 0.736477,0 0,-1.84119 -0.736477,0 z"
         id="path5392"
         style="fill:none;stroke:#0000ff;stroke-width:0.08;stroke-miterlimit:4;stroke-opacity:1;stroke-dasharray:none" />
      <path
         d="m 14.796668,29.491364 0.736476,0 0,-1.84119 -0.736476,0 z"
         id="path5394"
         style="fill:none;stroke:#0000ff;stroke-width:0.08;stroke-miterlimit:4;stroke-opacity:1;stroke-dasharray:none" />
      <path
         d="m 14.796668,24.852428 0.736476,0 0,-1.84119 -0.736476,0 z"
         id="path5396"
         style="fill:none;stroke:#0000ff;stroke-width:0.08;stroke-miterlimit:4;stroke-opacity:1;stroke-dasharray:none" />
      <path
         d="m 17.118134,24.852428 0.736477,0 0,-1.84119 -0.736477,0 z"
         id="path5398"
         style="fill:none;stroke:#0000ff;stroke-width:0.08;stroke-miterlimit:4;stroke-opacity:1;stroke-dasharray:none" />
      <path
         d="m 19.439599,24.852428 0.736476,0 0,-1.84119 -0.736476,0 z"
         id="path5400"
         style="fill:none;stroke:#0000ff;stroke-width:0.08;stroke-miterlimit:4;stroke-opacity:1;stroke-dasharray:none" />
      <path
         d="m 21.75707,24.852428 0.736476,0 0,-1.84119 -0.736476,0 z"
         id="path5402"
         style="fill:none;stroke:#0000ff;stroke-width:0.08;stroke-miterlimit:4;stroke-opacity:1;stroke-dasharray:none" />
    </g>
    <g
       transform="matrix(1.25,0,0,1.25,550.76682,692.61944)"
       id="surface1-0">
      <path
         d="m 1.663078,47.071297 1.584,0 0,-1.584 -1.584,0 z"
         id="path5927"
         style="fill:none;stroke:#0000ff;stroke-width:0.08;stroke-miterlimit:4;stroke-opacity:1;stroke-dasharray:none" />
      <path
         d="m 1.663078,42.821297 1.584,0 0,-1.584 -1.584,0 z"
         id="path5929"
         style="fill:none;stroke:#0000ff;stroke-width:0.08;stroke-miterlimit:4;stroke-opacity:1;stroke-dasharray:none" />
      <path
         d="m 8.8622965,42.821297 1.5840005,0 0,-1.584 -1.5840005,0 z"
         id="path5931"
         style="fill:none;stroke:#0000ff;stroke-width:0.08;stroke-miterlimit:4;stroke-opacity:1;stroke-dasharray:none" />
      <path
         d="m 8.8622965,47.071297 1.5840005,0 0,-1.584 -1.5840005,0 z"
         id="path5933"
         style="fill:none;stroke:#0000ff;stroke-width:0.08;stroke-miterlimit:4;stroke-opacity:1;stroke-dasharray:none" />
      <path
         d="m 16.061516,47.071297 1.584,0 0,-1.584 -1.584,0 z"
         id="path5935"
         style="fill:none;stroke:#0000ff;stroke-width:0.08;stroke-miterlimit:4;stroke-opacity:1;stroke-dasharray:none" />
      <path
         d="m 16.061516,42.821297 1.584,0 0,-1.584 -1.584,0 z"
         id="path5937"
         style="fill:none;stroke:#0000ff;stroke-width:0.08;stroke-miterlimit:4;stroke-opacity:1;stroke-dasharray:none" />
      <path
         d="m 23.260735,42.821297 1.584,0 0,-1.584 -1.584,0 z"
         id="path5939"
         style="fill:none;stroke:#0000ff;stroke-width:0.08;stroke-miterlimit:4;stroke-opacity:1;stroke-dasharray:none" />
      <path
         d="m 23.260735,47.071297 1.584,0 0,-1.584 -1.584,0 z"
         id="path5941"
         style="fill:none;stroke:#0000ff;stroke-width:0.08;stroke-miterlimit:4;stroke-opacity:1;stroke-dasharray:none" />
      <path
         d="m 30.459954,47.071297 1.583999,0 0,-1.584 -1.583999,0 z"
         id="path5943"
         style="fill:none;stroke:#0000ff;stroke-width:0.08;stroke-miterlimit:4;stroke-opacity:1;stroke-dasharray:none" />
      <path
         d="m 30.459954,42.821297 1.583999,0 0,-1.584 -1.583999,0 z"
         id="path5945"
         style="fill:none;stroke:#0000ff;stroke-width:0.08;stroke-miterlimit:4;stroke-opacity:1;stroke-dasharray:none" />
      <path
         d="m 37.663078,42.821297 1.584,0 0,-1.584 -1.584,0 z"
         id="path5947"
         style="fill:none;stroke:#0000ff;stroke-width:0.08;stroke-miterlimit:4;stroke-opacity:1;stroke-dasharray:none" />
      <path
         d="m 37.663078,47.071297 1.584,0 0,-1.584 -1.584,0 z"
         id="path5949"
         style="fill:none;stroke:#0000ff;stroke-width:0.08;stroke-miterlimit:4;stroke-opacity:1;stroke-dasharray:none" />
      <path
         d="m 44.862297,47.071297 1.584,0 0,-1.584 -1.584,0 z"
         id="path5951"
         style="fill:none;stroke:#0000ff;stroke-width:0.08;stroke-miterlimit:4;stroke-opacity:1;stroke-dasharray:none" />
      <path
         d="m 44.862297,42.821297 1.584,0 0,-1.584 -1.584,0 z"
         id="path5953"
         style="fill:none;stroke:#0000ff;stroke-width:0.08;stroke-miterlimit:4;stroke-opacity:1;stroke-dasharray:none" />
      <path
         d="m 52.061515,42.821297 1.584,0 0,-1.584 -1.584,0 z"
         id="path5955"
         style="fill:none;stroke:#0000ff;stroke-width:0.08;stroke-miterlimit:4;stroke-opacity:1;stroke-dasharray:none" />
      <path
         d="m 52.061515,47.071297 1.584,0 0,-1.584 -1.584,0 z"
         id="path5957"
         style="fill:none;stroke:#0000ff;stroke-width:0.08;stroke-miterlimit:4;stroke-opacity:1;stroke-dasharray:none" />
      <path
         d="m 52.061515,7.4697345 1.584,0 0,-1.584 -1.584,0 z"
         id="path5959"
         style="fill:none;stroke:#0000ff;stroke-width:0.08;stroke-miterlimit:4;stroke-opacity:1;stroke-dasharray:none" />
      <path
         d="m 52.061515,3.2236405 1.584,0 0,-1.584 -1.584,0 z"
         id="path5961"
         style="fill:none;stroke:#0000ff;stroke-width:0.08;stroke-miterlimit:4;stroke-opacity:1;stroke-dasharray:none" />
      <path
         d="m 44.862297,3.2236405 1.584,0 0,-1.584 -1.584,0 z"
         id="path5963"
         style="fill:none;stroke:#0000ff;stroke-width:0.08;stroke-miterlimit:4;stroke-opacity:1;stroke-dasharray:none" />
      <path
         d="m 44.862297,7.4697345 1.584,0 0,-1.584 -1.584,0 z"
         id="path5965"
         style="fill:none;stroke:#0000ff;stroke-width:0.08;stroke-miterlimit:4;stroke-opacity:1;stroke-dasharray:none" />
      <path
         d="m 37.663078,7.4697345 1.584,0 0,-1.584 -1.584,0 z"
         id="path5967"
         style="fill:none;stroke:#0000ff;stroke-width:0.08;stroke-miterlimit:4;stroke-opacity:1;stroke-dasharray:none" />
      <path
         d="m 37.663078,3.2236405 1.584,0 0,-1.584 -1.584,0 z"
         id="path5969"
         style="fill:none;stroke:#0000ff;stroke-width:0.08;stroke-miterlimit:4;stroke-opacity:1;stroke-dasharray:none" />
      <path
         d="m 30.459954,3.2236405 1.583999,0 0,-1.584 -1.583999,0 z"
         id="path5971"
         style="fill:none;stroke:#0000ff;stroke-width:0.08;stroke-miterlimit:4;stroke-opacity:1;stroke-dasharray:none" />
      <path
         d="m 30.459954,7.4697345 1.583999,0 0,-1.584 -1.583999,0 z"
         id="path5973"
         style="fill:none;stroke:#0000ff;stroke-width:0.08;stroke-miterlimit:4;stroke-opacity:1;stroke-dasharray:none" />
      <path
         d="m 23.260735,7.4697345 1.584,0 0,-1.584 -1.584,0 z"
         id="path5975"
         style="fill:none;stroke:#0000ff;stroke-width:0.08;stroke-miterlimit:4;stroke-opacity:1;stroke-dasharray:none" />
      <path
         d="m 23.260735,3.2236405 1.584,0 0,-1.584 -1.584,0 z"
         id="path5977"
         style="fill:none;stroke:#0000ff;stroke-width:0.08;stroke-miterlimit:4;stroke-opacity:1;stroke-dasharray:none" />
      <path
         d="m 16.061516,3.2236405 1.584,0 0,-1.584 -1.584,0 z"
         id="path5979"
         style="fill:none;stroke:#0000ff;stroke-width:0.08;stroke-miterlimit:4;stroke-opacity:1;stroke-dasharray:none" />
      <path
         d="m 16.061516,7.4697345 1.584,0 0,-1.584 -1.584,0 z"
         id="path5981"
         style="fill:none;stroke:#0000ff;stroke-width:0.08;stroke-miterlimit:4;stroke-opacity:1;stroke-dasharray:none" />
      <path
         d="m 8.8622965,7.4697345 1.5840005,0 0,-1.584 -1.5840005,0 z"
         id="path5983"
         style="fill:none;stroke:#0000ff;stroke-width:0.08;stroke-miterlimit:4;stroke-opacity:1;stroke-dasharray:none" />
      <path
         d="m 8.8622965,3.2236405 1.5840005,0 0,-1.584 -1.5840005,0 z"
         id="path5985"
         style="fill:none;stroke:#0000ff;stroke-width:0.08;stroke-miterlimit:4;stroke-opacity:1;stroke-dasharray:none" />
      <path
         d="m 1.663078,3.2236405 1.584,0 0,-1.584 -1.584,0 z"
         id="path5987"
         style="fill:none;stroke:#0000ff;stroke-width:0.08;stroke-miterlimit:4;stroke-opacity:1;stroke-dasharray:none" />
      <path
         d="m 1.663078,7.4697345 1.584,0 0,-1.584 -1.584,0 z"
         id="path5989"
         style="fill:none;stroke:#0000ff;stroke-width:0.08;stroke-miterlimit:4;stroke-opacity:1;stroke-dasharray:none" />
      <path
         d="m 16.684922,24.790625 0.72,0 0,-1.8 -0.72,0 z"
         id="path5991"
         style="fill:none;stroke:#0000ff;stroke-width:0.08;stroke-miterlimit:4;stroke-opacity:1;stroke-dasharray:none" />
      <path
         d="m 18.954454,24.790625 0.72,0 0,-1.8 -0.72,0 z"
         id="path5993"
         style="fill:none;stroke:#0000ff;stroke-width:0.08;stroke-miterlimit:4;stroke-opacity:1;stroke-dasharray:none" />
      <path
         d="m 21.223985,24.790625 0.72,0 0,-1.8 -0.72,0 z"
         id="path5995"
         style="fill:none;stroke:#0000ff;stroke-width:0.08;stroke-miterlimit:4;stroke-opacity:1;stroke-dasharray:none" />
      <path
         d="m 23.48961,24.790625 0.72,0 0,-1.8 -0.72,0 z"
         id="path5997"
         style="fill:none;stroke:#0000ff;stroke-width:0.08;stroke-miterlimit:4;stroke-opacity:1;stroke-dasharray:none" />
      <path
         d="m 23.48961,29.325781 0.72,0 0,-1.8 -0.72,0 z"
         id="path5999"
         style="fill:none;stroke:#0000ff;stroke-width:0.08;stroke-miterlimit:4;stroke-opacity:1;stroke-dasharray:none" />
      <path
         d="m 21.223985,29.325781 0.72,0 0,-1.8 -0.72,0 z"
         id="path6001"
         style="fill:none;stroke:#0000ff;stroke-width:0.08;stroke-miterlimit:4;stroke-opacity:1;stroke-dasharray:none" />
      <path
         d="m 18.954454,29.325781 0.72,0 0,-1.8 -0.72,0 z"
         id="path6003"
         style="fill:none;stroke:#0000ff;stroke-width:0.08;stroke-miterlimit:4;stroke-opacity:1;stroke-dasharray:none" />
      <path
         d="m 16.684922,29.325781 0.72,0 0,-1.8 -0.72,0 z"
         id="path6005"
         style="fill:none;stroke:#0000ff;stroke-width:0.08;stroke-miterlimit:4;stroke-opacity:1;stroke-dasharray:none" />
      <path
         d="m 38.286485,29.325781 0.72,0 0,-1.8 -0.72,0 z"
         id="path6007"
         style="fill:none;stroke:#0000ff;stroke-width:0.08;stroke-miterlimit:4;stroke-opacity:1;stroke-dasharray:none" />
      <path
         d="m 40.556015,29.325781 0.72,0 0,-1.8 -0.72,0 z"
         id="path6009"
         style="fill:none;stroke:#0000ff;stroke-width:0.08;stroke-miterlimit:4;stroke-opacity:1;stroke-dasharray:none" />
      <path
         d="m 42.82164,29.325781 0.72,0 0,-1.8 -0.72,0 z"
         id="path6011"
         style="fill:none;stroke:#0000ff;stroke-width:0.08;stroke-miterlimit:4;stroke-opacity:1;stroke-dasharray:none" />
      <path
         d="m 45.091172,29.325781 0.72,0 0,-1.8 -0.72,0 z"
         id="path6013"
         style="fill:none;stroke:#0000ff;stroke-width:0.08;stroke-miterlimit:4;stroke-opacity:1;stroke-dasharray:none" />
      <path
         d="m 45.091172,24.790625 0.72,0 0,-1.8 -0.72,0 z"
         id="path6015"
         style="fill:none;stroke:#0000ff;stroke-width:0.08;stroke-miterlimit:4;stroke-opacity:1;stroke-dasharray:none" />
      <path
         d="m 42.82164,24.790625 0.72,0 0,-1.8 -0.72,0 z"
         id="path6017"
         style="fill:none;stroke:#0000ff;stroke-width:0.08;stroke-miterlimit:4;stroke-opacity:1;stroke-dasharray:none" />
      <path
         d="m 40.556015,24.790625 0.72,0 0,-1.8 -0.72,0 z"
         id="path6019"
         style="fill:none;stroke:#0000ff;stroke-width:0.08;stroke-miterlimit:4;stroke-opacity:1;stroke-dasharray:none" />
      <path
         d="m 38.286485,24.790625 0.72,0 0,-1.8 -0.72,0 z"
         id="path6021"
         style="fill:none;stroke:#0000ff;stroke-width:0.08;stroke-miterlimit:4;stroke-opacity:1;stroke-dasharray:none" />
      <path
         d="m 38.286485,64.388282 0.72,0 0,-1.8 -0.72,0 z"
         id="path6023"
         style="fill:none;stroke:#0000ff;stroke-width:0.08;stroke-miterlimit:4;stroke-opacity:1;stroke-dasharray:none" />
      <path
         d="m 40.556015,64.388282 0.72,0 0,-1.8 -0.72,0 z"
         id="path6025"
         style="fill:none;stroke:#0000ff;stroke-width:0.08;stroke-miterlimit:4;stroke-opacity:1;stroke-dasharray:none" />
      <path
         d="m 42.82164,64.388282 0.72,0 0,-1.8 -0.72,0 z"
         id="path6027"
         style="fill:none;stroke:#0000ff;stroke-width:0.08;stroke-miterlimit:4;stroke-opacity:1;stroke-dasharray:none" />
      <path
         d="m 45.091172,64.388282 0.72,0 0,-1.8 -0.72,0 z"
         id="path6029"
         style="fill:none;stroke:#0000ff;stroke-width:0.08;stroke-miterlimit:4;stroke-opacity:1;stroke-dasharray:none" />
      <path
         d="m 45.091172,68.923438 0.72,0 0,-1.8 -0.72,0 z"
         id="path6031"
         style="fill:none;stroke:#0000ff;stroke-width:0.08;stroke-miterlimit:4;stroke-opacity:1;stroke-dasharray:none" />
      <path
         d="m 42.82164,68.923438 0.72,0 0,-1.8 -0.72,0 z"
         id="path6033"
         style="fill:none;stroke:#0000ff;stroke-width:0.08;stroke-miterlimit:4;stroke-opacity:1;stroke-dasharray:none" />
      <path
         d="m 40.556015,68.923438 0.72,0 0,-1.8 -0.72,0 z"
         id="path6035"
         style="fill:none;stroke:#0000ff;stroke-width:0.08;stroke-miterlimit:4;stroke-opacity:1;stroke-dasharray:none" />
      <path
         d="m 38.286485,68.923438 0.72,0 0,-1.8 -0.72,0 z"
         id="path6037"
         style="fill:none;stroke:#0000ff;stroke-width:0.08;stroke-miterlimit:4;stroke-opacity:1;stroke-dasharray:none" />
      <path
         d="m 23.48961,68.923438 0.72,0 0,-1.8 -0.72,0 z"
         id="path6039"
         style="fill:none;stroke:#0000ff;stroke-width:0.08;stroke-miterlimit:4;stroke-opacity:1;stroke-dasharray:none" />
      <path
         d="m 21.223985,68.923438 0.72,0 0,-1.8 -0.72,0 z"
         id="path6041"
         style="fill:none;stroke:#0000ff;stroke-width:0.08;stroke-miterlimit:4;stroke-opacity:1;stroke-dasharray:none" />
      <path
         d="m 18.954454,68.923438 0.72,0 0,-1.8 -0.72,0 z"
         id="path6043"
         style="fill:none;stroke:#0000ff;stroke-width:0.08;stroke-miterlimit:4;stroke-opacity:1;stroke-dasharray:none" />
      <path
         d="m 16.684922,68.923438 0.72,0 0,-1.8 -0.72,0 z"
         id="path6045"
         style="fill:none;stroke:#0000ff;stroke-width:0.08;stroke-miterlimit:4;stroke-opacity:1;stroke-dasharray:none" />
      <path
         d="m 16.684922,64.388282 0.72,0 0,-1.8 -0.72,0 z"
         id="path6047"
         style="fill:none;stroke:#0000ff;stroke-width:0.08;stroke-miterlimit:4;stroke-opacity:1;stroke-dasharray:none" />
      <path
         d="m 18.954454,64.388282 0.72,0 0,-1.8 -0.72,0 z"
         id="path6049"
         style="fill:none;stroke:#0000ff;stroke-width:0.08;stroke-miterlimit:4;stroke-opacity:1;stroke-dasharray:none" />
      <path
         d="m 21.223985,64.388282 0.72,0 0,-1.8 -0.72,0 z"
         id="path6051"
         style="fill:none;stroke:#0000ff;stroke-width:0.08;stroke-miterlimit:4;stroke-opacity:1;stroke-dasharray:none" />
      <path
         d="m 23.48961,64.388282 0.72,0 0,-1.8 -0.72,0 z"
         id="path6053"
         style="fill:none;stroke:#0000ff;stroke-width:0.08;stroke-miterlimit:4;stroke-opacity:1;stroke-dasharray:none" />
    </g>
    <g
       transform="matrix(1.25,0,0,1.25,73.990563,710.84507)"
       id="surface1-1"
       style="fill:none;stroke:#0000ff;stroke-width:0.08;stroke-miterlimit:4;stroke-opacity:1;stroke-dasharray:none">
      <path
         d="m 0.5560155,26.978344 0.72,0 0,-1.152 -0.72,0 z"
         id="path6463"
         style="fill:none;stroke:#0000ff;stroke-width:0.08;stroke-miterlimit:4;stroke-opacity:1;stroke-dasharray:none" />
      <path
         d="m 2.8255465,26.978344 0.72,0 0,-1.152 -0.72,0 z"
         id="path6465"
         style="fill:none;stroke:#0000ff;stroke-width:0.08;stroke-miterlimit:4;stroke-opacity:1;stroke-dasharray:none" />
      <path
         d="m 5.0833595,26.978344 0.72,0 0,-1.152 -0.72,0 z"
         id="path6467"
         style="fill:none;stroke:#0000ff;stroke-width:0.08;stroke-miterlimit:4;stroke-opacity:1;stroke-dasharray:none" />
      <path
         d="m 7.3528905,26.978344 0.72,0 0,-1.152 -0.72,0 z"
         id="path6469"
         style="fill:none;stroke:#0000ff;stroke-width:0.08;stroke-miterlimit:4;stroke-opacity:1;stroke-dasharray:none" />
      <path
         d="m 7.3528905,23.435375 0.72,0 0,-1.152 -0.72,0 z"
         id="path6471"
         style="fill:none;stroke:#0000ff;stroke-width:0.08;stroke-miterlimit:4;stroke-opacity:1;stroke-dasharray:none" />
      <path
         d="m 5.0833595,23.435375 0.72,0 0,-1.152 -0.72,0 z"
         id="path6473"
         style="fill:none;stroke:#0000ff;stroke-width:0.08;stroke-miterlimit:4;stroke-opacity:1;stroke-dasharray:none" />
      <path
         d="m 2.8255465,23.435375 0.72,0 0,-1.152 -0.72,0 z"
         id="path6475"
         style="fill:none;stroke:#0000ff;stroke-width:0.08;stroke-miterlimit:4;stroke-opacity:1;stroke-dasharray:none" />
      <path
         d="m 0.5560155,23.435375 0.72,0 0,-1.152 -0.72,0 z"
         id="path6477"
         style="fill:none;stroke:#0000ff;stroke-width:0.08;stroke-miterlimit:4;stroke-opacity:1;stroke-dasharray:none" />
      <path
         d="m 0.5560155,5.376781 0.72,0 0,-1.152 -0.72,0 z"
         id="path6479"
         style="fill:none;stroke:#0000ff;stroke-width:0.08;stroke-miterlimit:4;stroke-opacity:1;stroke-dasharray:none" />
      <path
         d="m 2.8255465,5.376781 0.72,0 0,-1.152 -0.72,0 z"
         id="path6481"
         style="fill:none;stroke:#0000ff;stroke-width:0.08;stroke-miterlimit:4;stroke-opacity:1;stroke-dasharray:none" />
      <path
         d="m 5.0833595,5.376781 0.72,0 0,-1.152 -0.72,0 z"
         id="path6483"
         style="fill:none;stroke:#0000ff;stroke-width:0.08;stroke-miterlimit:4;stroke-opacity:1;stroke-dasharray:none" />
      <path
         d="m 7.3528905,5.376781 0.72,0 0,-1.152 -0.72,0 z"
         id="path6485"
         style="fill:none;stroke:#0000ff;stroke-width:0.08;stroke-miterlimit:4;stroke-opacity:1;stroke-dasharray:none" />
      <path
         d="m 7.3528905,1.833813 0.72,0 0,-1.152 -0.72,0 z"
         id="path6487"
         style="fill:none;stroke:#0000ff;stroke-width:0.08;stroke-miterlimit:4;stroke-opacity:1;stroke-dasharray:none" />
      <path
         d="m 5.0833595,1.833813 0.72,0 0,-1.152 -0.72,0 z"
         id="path6489"
         style="fill:none;stroke:#0000ff;stroke-width:0.08;stroke-miterlimit:4;stroke-opacity:1;stroke-dasharray:none" />
      <path
         d="m 2.8255465,1.833813 0.72,0 0,-1.152 -0.72,0 z"
         id="path6491"
         style="fill:none;stroke:#0000ff;stroke-width:0.08;stroke-miterlimit:4;stroke-opacity:1;stroke-dasharray:none" />
      <path
         d="m 0.5560155,1.833813 0.72,0 0,-1.152 -0.72,0 z"
         id="path6493"
         style="fill:none;stroke:#0000ff;stroke-width:0.08;stroke-miterlimit:4;stroke-opacity:1;stroke-dasharray:none" />
    </g>
    <g
       transform="matrix(1.25,0,0,1.25,556.03255,546.45031)"
       id="surface1-5">
      <path
         d="m 0.6900625,8.4232185 2.448,0 0,-2.448 -2.448,0 z"
         id="path6698"
         style="fill:none;stroke:#0000ff;stroke-width:0.08;stroke-miterlimit:4;stroke-opacity:1;stroke-dasharray:none" />
      <path
         d="m 5.8150625,8.4232185 2.448,0 0,-2.448 -2.448,0 z"
         id="path6700"
         style="fill:none;stroke:#0000ff;stroke-width:0.08;stroke-miterlimit:4;stroke-opacity:1;stroke-dasharray:none" />
      <path
         d="m 5.8150625,2.4466565 2.448,0 0,-2.448 -2.448,0 z"
         id="path6702"
         style="fill:none;stroke:#0000ff;stroke-width:0.08;stroke-miterlimit:4;stroke-opacity:1;stroke-dasharray:none" />
      <path
         d="m 0.6900625,2.4466565 2.448,0 0,-2.448 -2.448,0 z"
         id="path6704"
         style="fill:none;stroke:#0000ff;stroke-width:0.08;stroke-miterlimit:4;stroke-opacity:1;stroke-dasharray:none" />
      <path
         d="m 11.530219,2.9887815 2.088,0 0,-2.376 -2.088,0 z"
         id="path6706"
         style="fill:none;stroke:#0000ff;stroke-width:0.08;stroke-miterlimit:4;stroke-opacity:1;stroke-dasharray:none" />
      <path
         d="m 11.530219,7.813 2.088,0 0,-2.376 -2.088,0 z"
         id="path6708"
         style="fill:none;stroke:#0000ff;stroke-width:0.08;stroke-miterlimit:4;stroke-opacity:1;stroke-dasharray:none" />
    </g>
    <g
       transform="matrix(1.25,0,0,1.25,380.65462,557.11194)"
       id="surface1-53"
       style="fill:none;stroke:#0000ff;stroke-width:0.08;stroke-miterlimit:4;stroke-opacity:1;stroke-dasharray:none">
      <path
         d="m 6.856563,7.779 3.24,0 0,-2.808 -3.24,0 z"
         id="path6897"
         style="fill:none;stroke:#0000ff;stroke-width:0.08;stroke-miterlimit:4;stroke-opacity:1;stroke-dasharray:none" />
      <path
         d="m 6.856563,2.392281 3.24,0 0,-2.808 -3.24,0 z"
         id="path6899"
         style="fill:none;stroke:#0000ff;stroke-width:0.08;stroke-miterlimit:4;stroke-opacity:1;stroke-dasharray:none" />
      <path
         d="m 0.622187,5.0875935 3.24,0 0,-2.808 -3.24,0 z"
         id="path6901"
         style="fill:none;stroke:#0000ff;stroke-width:0.08;stroke-miterlimit:4;stroke-opacity:1;stroke-dasharray:none" />
    </g>
    <g
       transform="matrix(1.25,0,0,1.25,99.885588,561.86421)"
       id="surface1-7"
       style="fill:none;stroke:#0000ff;stroke-width:0.08;stroke-miterlimit:4;stroke-opacity:1;stroke-dasharray:none">
      <path
         d="m 0.676875,14.273937 3.24,0 0,-2.376 -3.24,0 z"
         id="path7101"
         style="fill:none;stroke:#0000ff;stroke-width:0.08;stroke-miterlimit:4;stroke-opacity:1;stroke-dasharray:none" />
      <path
         d="m 0.676875,9.734875 3.24,0 0,-2.376 -3.24,0 z"
         id="path7103"
         style="fill:none;stroke:#0000ff;stroke-width:0.08;stroke-miterlimit:4;stroke-opacity:1;stroke-dasharray:none" />
      <path
         d="m 9.188594,9.734875 3.24,0 0,-2.376 -3.24,0 z"
         id="path7105"
         style="fill:none;stroke:#0000ff;stroke-width:0.08;stroke-miterlimit:4;stroke-opacity:1;stroke-dasharray:none" />
      <path
         d="m 9.188594,14.273937 3.24,0 0,-2.376 -3.24,0 z"
         id="path7107"
         style="fill:none;stroke:#0000ff;stroke-width:0.08;stroke-miterlimit:4;stroke-opacity:1;stroke-dasharray:none" />
      <path
         d="m 9.9710935,5.7476095 1.8000005,0 0,-1.296 -1.8000005,0 z"
         id="path7109"
         style="fill:none;stroke:#0000ff;stroke-width:0.08;stroke-miterlimit:4;stroke-opacity:1;stroke-dasharray:none" />
      <path
         d="m 9.9710935,2.0601095 1.8000005,0 0,-1.296 -1.8000005,0 z"
         id="path7111"
         style="fill:none;stroke:#0000ff;stroke-width:0.08;stroke-miterlimit:4;stroke-opacity:1;stroke-dasharray:none" />
      <path
         d="m 5.2914065,2.0601095 1.8,0 0,-1.296 -1.8,0 z"
         id="path7113"
         style="fill:none;stroke:#0000ff;stroke-width:0.08;stroke-miterlimit:4;stroke-opacity:1;stroke-dasharray:none" />
      <path
         d="m 5.2914065,5.7476095 1.8,0 0,-1.296 -1.8,0 z"
         id="path7115"
         style="fill:none;stroke:#0000ff;stroke-width:0.08;stroke-miterlimit:4;stroke-opacity:1;stroke-dasharray:none" />
      <path
         d="m 0.9710935,5.7476095 1.8,0 0,-1.296 -1.8,0 z"
         id="path7117"
         style="fill:none;stroke:#0000ff;stroke-width:0.08;stroke-miterlimit:4;stroke-opacity:1;stroke-dasharray:none" />
      <path
         d="m 0.9710935,2.0601095 1.8,0 0,-1.296 -1.8,0 z"
         id="path7119"
         style="fill:none;stroke:#0000ff;stroke-width:0.08;stroke-miterlimit:4;stroke-opacity:1;stroke-dasharray:none" />
    </g>
    <g
       transform="matrix(1.25,0,0,1.25,146.71472,920.43481)"
       id="surface8606">
      <path
         d="m 8.9695785,8.448422 3.0960005,0 0,-0.432 -3.0960005,0 z"
         id="path3207"
         style="fill:none;stroke:#0000ff;stroke-width:0.08;stroke-miterlimit:4;stroke-opacity:1;stroke-dasharray:none" />
      <path
         d="m 8.9695785,6.608578 3.0960005,0 0,-0.432 -3.0960005,0 z"
         id="path3209"
         style="fill:none;stroke:#0000ff;stroke-width:0.08;stroke-miterlimit:4;stroke-opacity:1;stroke-dasharray:none" />
      <path
         d="m 8.9695785,4.764828 3.0960005,0 0,-0.432 -3.0960005,0 z"
         id="path3211"
         style="fill:none;stroke:#0000ff;stroke-width:0.08;stroke-miterlimit:4;stroke-opacity:1;stroke-dasharray:none" />
      <path
         d="m 8.9695785,2.921078 3.0960005,0 0,-0.432 -3.0960005,0 z"
         id="path3213"
         style="fill:none;stroke:#0000ff;stroke-width:0.08;stroke-miterlimit:4;stroke-opacity:1;stroke-dasharray:none" />
      <path
         d="m 8.9695785,1.077328 3.0960005,0 0,-0.432 -3.0960005,0 z"
         id="path3215"
         style="fill:none;stroke:#0000ff;stroke-width:0.08;stroke-miterlimit:4;stroke-opacity:1;stroke-dasharray:none" />
      <path
         d="m 1.097328,3.4729845 3.528,0 0,-3.528 -3.528,0 z"
         id="path3217"
         style="fill:none;stroke:#0000ff;stroke-width:0.08;stroke-miterlimit:4;stroke-opacity:1;stroke-dasharray:none" />
      <path
         d="m 1.097328,9.140953 3.528,0 0,-3.528 -3.528,0 z"
         id="path3219"
         style="fill:none;stroke:#0000ff;stroke-width:0.08;stroke-miterlimit:4;stroke-opacity:1;stroke-dasharray:none" />
    </g>
    <g
       transform="matrix(1.25,0,0,1.25,488.92014,909.32572)"
       id="surface2923">
      <path
         d="m 15.627734,7.121094 2.650782,0 0,-0.84375 -2.650782,0 z"
         id="path4116"
         style="fill:none;stroke:#0000ff;stroke-width:0.08;stroke-miterlimit:4;stroke-opacity:1;stroke-dasharray:none" />
      <path
         d="m 15.627734,4.429687 2.650782,0 0,-0.84375 -2.650782,0 z"
         id="path4118"
         style="fill:none;stroke:#0000ff;stroke-width:0.08;stroke-miterlimit:4;stroke-opacity:1;stroke-dasharray:none" />
      <path
         d="m 15.627734,1.734375 2.650782,0 0,-0.84375 -2.650782,0 z"
         id="path4120"
         style="fill:none;stroke:#0000ff;stroke-width:0.08;stroke-miterlimit:4;stroke-opacity:1;stroke-dasharray:none" />
      <path
         d="m 22.998828,1.734375 2.650782,0 0,-0.84375 -2.650782,0 z"
         id="path4122"
         style="fill:none;stroke:#0000ff;stroke-width:0.08;stroke-miterlimit:4;stroke-opacity:1;stroke-dasharray:none" />
      <path
         d="m 22.998828,7.121094 2.650782,0 0,-0.84375 -2.650782,0 z"
         id="path4124"
         style="fill:none;stroke:#0000ff;stroke-width:0.08;stroke-miterlimit:4;stroke-opacity:1;stroke-dasharray:none" />
      <path
         d="m 9.6172068,8.9100196 3.0976172,0 0,-0.4176952 -3.0976172,0 z"
         id="path4126"
         style="fill:none;stroke:#0000ff;stroke-width:0.08;stroke-miterlimit:4;stroke-opacity:1;stroke-dasharray:none" />
      <path
         d="m 9.6172068,7.0662696 3.0976172,0 0,-0.4176952 -3.0976172,0 z"
         id="path4128"
         style="fill:none;stroke:#0000ff;stroke-width:0.08;stroke-miterlimit:4;stroke-opacity:1;stroke-dasharray:none" />
      <path
         d="m 9.6172068,5.2225196 3.0976172,0 0,-0.4176952 -3.0976172,0 z"
         id="path4130"
         style="fill:none;stroke:#0000ff;stroke-width:0.08;stroke-miterlimit:4;stroke-opacity:1;stroke-dasharray:none" />
      <path
         d="m 9.6172068,3.3826756 3.0976172,0 0,-0.4176952 -3.0976172,0 z"
         id="path4132"
         style="fill:none;stroke:#0000ff;stroke-width:0.08;stroke-miterlimit:4;stroke-opacity:1;stroke-dasharray:none" />
      <path
         d="m 9.6172068,1.5389256 3.0976172,0 0,-0.4176952 -3.0976172,0 z"
         id="path4134"
         style="fill:none;stroke:#0000ff;stroke-width:0.08;stroke-miterlimit:4;stroke-opacity:1;stroke-dasharray:none" />
      <path
         d="m 1.5998631,4.0721878 3.5307428,0 0,-3.21468755 -3.5307428,0 z"
         id="path4136"
         style="fill:none;stroke:#0000ff;stroke-width:0.08;stroke-miterlimit:4;stroke-opacity:1;stroke-dasharray:none" />
      <path
         d="m 1.5998631,9.1698438 3.5307428,0 0,-3.2146875 -3.5307428,0 z"
         id="path4138"
         style="fill:none;stroke:#0000ff;stroke-width:0.08;stroke-miterlimit:4;stroke-opacity:1;stroke-dasharray:none" />
    </g>
    <g
       transform="matrix(1.25,0,0,1.25,237.58867,556.77683)"
       id="surface1-9"
       style="fill:none;stroke:#0000ff;stroke-width:0.08;stroke-miterlimit:4;stroke-opacity:1;stroke-dasharray:none">
      <path
         d="m 0.676875,14.273937 3.24,0 0,-2.376 -3.24,0 z"
         id="path7967"
         style="fill:none;stroke:#0000ff;stroke-width:0.08;stroke-miterlimit:4;stroke-opacity:1;stroke-dasharray:none" />
      <path
         d="m 0.676875,9.734875 3.24,0 0,-2.376 -3.24,0 z"
         id="path7969"
         style="fill:none;stroke:#0000ff;stroke-width:0.08;stroke-miterlimit:4;stroke-opacity:1;stroke-dasharray:none" />
      <path
         d="m 9.188594,9.734875 3.24,0 0,-2.376 -3.24,0 z"
         id="path7971"
         style="fill:none;stroke:#0000ff;stroke-width:0.08;stroke-miterlimit:4;stroke-opacity:1;stroke-dasharray:none" />
      <path
         d="m 9.188594,14.273937 3.24,0 0,-2.376 -3.24,0 z"
         id="path7973"
         style="fill:none;stroke:#0000ff;stroke-width:0.08;stroke-miterlimit:4;stroke-opacity:1;stroke-dasharray:none" />
      <path
         d="m 9.9710935,5.7476095 1.8000005,0 0,-1.296 -1.8000005,0 z"
         id="path7975"
         style="fill:none;stroke:#0000ff;stroke-width:0.08;stroke-miterlimit:4;stroke-opacity:1;stroke-dasharray:none" />
      <path
         d="m 9.9710935,2.0601095 1.8000005,0 0,-1.296 -1.8000005,0 z"
         id="path7977"
         style="fill:none;stroke:#0000ff;stroke-width:0.08;stroke-miterlimit:4;stroke-opacity:1;stroke-dasharray:none" />
      <path
         d="m 5.2914065,2.0601095 1.8,0 0,-1.296 -1.8,0 z"
         id="path7979"
         style="fill:none;stroke:#0000ff;stroke-width:0.08;stroke-miterlimit:4;stroke-opacity:1;stroke-dasharray:none" />
      <path
         d="m 5.2914065,5.7476095 1.8,0 0,-1.296 -1.8,0 z"
         id="path7981"
         style="fill:none;stroke:#0000ff;stroke-width:0.08;stroke-miterlimit:4;stroke-opacity:1;stroke-dasharray:none" />
      <path
         d="m 0.9710935,5.7476095 1.8,0 0,-1.296 -1.8,0 z"
         id="path7983"
         style="fill:none;stroke:#0000ff;stroke-width:0.08;stroke-miterlimit:4;stroke-opacity:1;stroke-dasharray:none" />
      <path
         d="m 0.9710935,2.0601095 1.8,0 0,-1.296 -1.8,0 z"
         id="path7985"
         style="fill:none;stroke:#0000ff;stroke-width:0.08;stroke-miterlimit:4;stroke-opacity:1;stroke-dasharray:none" />
    </g>
  </g>
</svg>
