<?xml version="1.0" encoding="UTF-8"?>
<svg xmlns="http://www.w3.org/2000/svg" xmlns:xlink="http://www.w3.org/1999/xlink" width="73pt" height="74pt" viewBox="0 0 73 74" version="1.1">
<g id="surface1">
<path style=" stroke:none;fill-rule:evenodd;fill:rgb(45.098039%,45.098039%,87.058824%);fill-opacity:1;" d="M 1.75 70.460938 L 4.019531 70.460938 L 4.019531 68.191406 L 1.75 68.191406 Z "/>
<path style=" stroke:none;fill-rule:evenodd;fill:rgb(45.098039%,45.098039%,87.058824%);fill-opacity:1;" d="M 6.003906 70.460938 L 8.273438 70.460938 L 8.273438 68.191406 L 6.003906 68.191406 Z "/>
<path style=" stroke:none;fill-rule:evenodd;fill:rgb(45.098039%,45.098039%,87.058824%);fill-opacity:1;" d="M 6.003906 63.261719 L 8.273438 63.261719 L 8.273438 60.992188 L 6.003906 60.992188 Z "/>
<path style=" stroke:none;fill-rule:evenodd;fill:rgb(45.098039%,45.098039%,87.058824%);fill-opacity:1;" d="M 1.75 63.261719 L 4.019531 63.261719 L 4.019531 60.992188 L 1.75 60.992188 Z "/>
<path style=" stroke:none;fill-rule:evenodd;fill:rgb(45.098039%,45.098039%,87.058824%);fill-opacity:1;" d="M 1.75 56.0625 L 4.019531 56.0625 L 4.019531 53.792969 L 1.75 53.792969 Z "/>
<path style=" stroke:none;fill-rule:evenodd;fill:rgb(45.098039%,45.098039%,87.058824%);fill-opacity:1;" d="M 6.003906 56.0625 L 8.273438 56.0625 L 8.273438 53.792969 L 6.003906 53.792969 Z "/>
<path style=" stroke:none;fill-rule:evenodd;fill:rgb(45.098039%,45.098039%,87.058824%);fill-opacity:1;" d="M 6.003906 48.863281 L 8.273438 48.863281 L 8.273438 46.59375 L 6.003906 46.59375 Z "/>
<path style=" stroke:none;fill-rule:evenodd;fill:rgb(45.098039%,45.098039%,87.058824%);fill-opacity:1;" d="M 1.75 48.863281 L 4.019531 48.863281 L 4.019531 46.59375 L 1.75 46.59375 Z "/>
<path style=" stroke:none;fill-rule:evenodd;fill:rgb(45.098039%,45.098039%,87.058824%);fill-opacity:1;" d="M 3.519531 8.152344 L 5.789062 8.152344 L 5.789062 5.882812 L 3.519531 5.882812 Z "/>
<path style=" stroke:none;fill-rule:evenodd;fill:rgb(45.098039%,45.098039%,87.058824%);fill-opacity:1;" d="M 3.519531 3.898438 L 5.789062 3.898438 L 5.789062 1.628906 L 3.519531 1.628906 Z "/>
<path style=" stroke:none;fill-rule:evenodd;fill:rgb(45.098039%,45.098039%,87.058824%);fill-opacity:1;" d="M 10.71875 3.898438 L 12.988281 3.898438 L 12.988281 1.628906 L 10.71875 1.628906 Z "/>
<path style=" stroke:none;fill-rule:evenodd;fill:rgb(45.098039%,45.098039%,87.058824%);fill-opacity:1;" d="M 10.71875 8.152344 L 12.988281 8.152344 L 12.988281 5.882812 L 10.71875 5.882812 Z "/>
<path style=" stroke:none;fill-rule:evenodd;fill:rgb(45.098039%,45.098039%,87.058824%);fill-opacity:1;" d="M 17.921875 8.152344 L 20.191406 8.152344 L 20.191406 5.882812 L 17.921875 5.882812 Z "/>
<path style=" stroke:none;fill-rule:evenodd;fill:rgb(45.098039%,45.098039%,87.058824%);fill-opacity:1;" d="M 17.921875 3.898438 L 20.191406 3.898438 L 20.191406 1.628906 L 17.921875 1.628906 Z "/>
<path style=" stroke:none;fill-rule:evenodd;fill:rgb(45.098039%,45.098039%,87.058824%);fill-opacity:1;" d="M 25.121094 3.898438 L 27.390625 3.898438 L 27.390625 1.628906 L 25.121094 1.628906 Z "/>
<path style=" stroke:none;fill-rule:evenodd;fill:rgb(45.098039%,45.098039%,87.058824%);fill-opacity:1;" d="M 25.121094 8.152344 L 27.390625 8.152344 L 27.390625 5.882812 L 25.121094 5.882812 Z "/>
<path style=" stroke:none;fill-rule:evenodd;fill:rgb(45.098039%,45.098039%,87.058824%);fill-opacity:1;" d="M 65.109375 5.660156 L 67.378906 5.660156 L 67.378906 3.390625 L 65.109375 3.390625 Z "/>
<path style=" stroke:none;fill-rule:evenodd;fill:rgb(45.098039%,45.098039%,87.058824%);fill-opacity:1;" d="M 69.363281 5.660156 L 71.632812 5.660156 L 71.632812 3.390625 L 69.363281 3.390625 Z "/>
<path style=" stroke:none;fill-rule:evenodd;fill:rgb(45.098039%,45.098039%,87.058824%);fill-opacity:1;" d="M 69.363281 12.863281 L 71.632812 12.863281 L 71.632812 10.59375 L 69.363281 10.59375 Z "/>
<path style=" stroke:none;fill-rule:evenodd;fill:rgb(45.098039%,45.098039%,87.058824%);fill-opacity:1;" d="M 65.109375 12.863281 L 67.378906 12.863281 L 67.378906 10.59375 L 65.109375 10.59375 Z "/>
<path style=" stroke:none;fill-rule:evenodd;fill:rgb(45.098039%,45.098039%,87.058824%);fill-opacity:1;" d="M 65.109375 20.0625 L 67.378906 20.0625 L 67.378906 17.792969 L 65.109375 17.792969 Z "/>
<path style=" stroke:none;fill-rule:evenodd;fill:rgb(45.098039%,45.098039%,87.058824%);fill-opacity:1;" d="M 69.363281 20.0625 L 71.632812 20.0625 L 71.632812 17.792969 L 69.363281 17.792969 Z "/>
<path style=" stroke:none;fill-rule:evenodd;fill:rgb(45.098039%,45.098039%,87.058824%);fill-opacity:1;" d="M 69.363281 27.261719 L 71.632812 27.261719 L 71.632812 24.992188 L 69.363281 24.992188 Z "/>
<path style=" stroke:none;fill-rule:evenodd;fill:rgb(45.098039%,45.098039%,87.058824%);fill-opacity:1;" d="M 65.109375 27.261719 L 67.378906 27.261719 L 67.378906 24.992188 L 65.109375 24.992188 Z "/>
<path style=" stroke:none;fill-rule:evenodd;fill:rgb(45.098039%,45.098039%,87.058824%);fill-opacity:1;" d="M 68.320312 67.976562 L 70.589844 67.976562 L 70.589844 65.707031 L 68.320312 65.707031 Z "/>
<path style=" stroke:none;fill-rule:evenodd;fill:rgb(45.098039%,45.098039%,87.058824%);fill-opacity:1;" d="M 68.320312 72.234375 L 70.589844 72.234375 L 70.589844 69.964844 L 68.320312 69.964844 Z "/>
<path style=" stroke:none;fill-rule:evenodd;fill:rgb(45.098039%,45.098039%,87.058824%);fill-opacity:1;" d="M 61.121094 72.234375 L 63.390625 72.234375 L 63.390625 69.964844 L 61.121094 69.964844 Z "/>
<path style=" stroke:none;fill-rule:evenodd;fill:rgb(45.098039%,45.098039%,87.058824%);fill-opacity:1;" d="M 61.121094 67.976562 L 63.390625 67.976562 L 63.390625 65.707031 L 61.121094 65.707031 Z "/>
<path style=" stroke:none;fill-rule:evenodd;fill:rgb(45.098039%,45.098039%,87.058824%);fill-opacity:1;" d="M 53.921875 67.976562 L 56.191406 67.976562 L 56.191406 65.707031 L 53.921875 65.707031 Z "/>
<path style=" stroke:none;fill-rule:evenodd;fill:rgb(45.098039%,45.098039%,87.058824%);fill-opacity:1;" d="M 53.921875 72.234375 L 56.191406 72.234375 L 56.191406 69.964844 L 53.921875 69.964844 Z "/>
<path style=" stroke:none;fill-rule:evenodd;fill:rgb(45.098039%,45.098039%,87.058824%);fill-opacity:1;" d="M 46.71875 72.234375 L 48.988281 72.234375 L 48.988281 69.964844 L 46.71875 69.964844 Z "/>
<path style=" stroke:none;fill-rule:evenodd;fill:rgb(45.098039%,45.098039%,87.058824%);fill-opacity:1;" d="M 46.71875 67.976562 L 48.988281 67.976562 L 48.988281 65.707031 L 46.71875 65.707031 Z "/>
<path style=" stroke:none;fill-rule:evenodd;fill:rgb(45.098039%,45.098039%,87.058824%);fill-opacity:1;" d="M 27.609375 59.042969 L 30.15625 59.042969 L 30.15625 57.625 L 27.609375 57.625 Z "/>
<path style=" stroke:none;fill-rule:evenodd;fill:rgb(45.098039%,45.098039%,87.058824%);fill-opacity:1;" d="M 27.609375 56.773438 L 30.15625 56.773438 L 30.15625 55.355469 L 27.609375 55.355469 Z "/>
<path style=" stroke:none;fill-rule:evenodd;fill:rgb(45.098039%,45.098039%,87.058824%);fill-opacity:1;" d="M 27.609375 54.507812 L 30.15625 54.507812 L 30.15625 53.089844 L 27.609375 53.089844 Z "/>
<path style=" stroke:none;fill-rule:evenodd;fill:rgb(45.098039%,45.098039%,87.058824%);fill-opacity:1;" d="M 27.609375 52.238281 L 30.15625 52.238281 L 30.15625 50.820312 L 27.609375 50.820312 Z "/>
<path style=" stroke:none;fill-rule:evenodd;fill:rgb(45.098039%,45.098039%,87.058824%);fill-opacity:1;" d="M 23.070312 52.238281 L 25.617188 52.238281 L 25.617188 50.820312 L 23.070312 50.820312 Z "/>
<path style=" stroke:none;fill-rule:evenodd;fill:rgb(45.098039%,45.098039%,87.058824%);fill-opacity:1;" d="M 23.070312 54.507812 L 25.617188 54.507812 L 25.617188 53.089844 L 23.070312 53.089844 Z "/>
<path style=" stroke:none;fill-rule:evenodd;fill:rgb(45.098039%,45.098039%,87.058824%);fill-opacity:1;" d="M 23.070312 56.773438 L 25.617188 56.773438 L 25.617188 55.355469 L 23.070312 55.355469 Z "/>
<path style=" stroke:none;fill-rule:evenodd;fill:rgb(45.098039%,45.098039%,87.058824%);fill-opacity:1;" d="M 23.070312 59.042969 L 25.617188 59.042969 L 25.617188 57.625 L 23.070312 57.625 Z "/>
<path style=" stroke:none;fill-rule:evenodd;fill:rgb(45.098039%,45.098039%,87.058824%);fill-opacity:1;" d="M 43.230469 23.042969 L 45.777344 23.042969 L 45.777344 21.625 L 43.230469 21.625 Z "/>
<path style=" stroke:none;fill-rule:evenodd;fill:rgb(45.098039%,45.098039%,87.058824%);fill-opacity:1;" d="M 43.230469 20.773438 L 45.777344 20.773438 L 45.777344 19.355469 L 43.230469 19.355469 Z "/>
<path style=" stroke:none;fill-rule:evenodd;fill:rgb(45.098039%,45.098039%,87.058824%);fill-opacity:1;" d="M 43.230469 18.507812 L 45.777344 18.507812 L 45.777344 17.089844 L 43.230469 17.089844 Z "/>
<path style=" stroke:none;fill-rule:evenodd;fill:rgb(45.098039%,45.098039%,87.058824%);fill-opacity:1;" d="M 43.230469 16.238281 L 45.777344 16.238281 L 45.777344 14.820312 L 43.230469 14.820312 Z "/>
<path style=" stroke:none;fill-rule:evenodd;fill:rgb(45.098039%,45.098039%,87.058824%);fill-opacity:1;" d="M 47.769531 16.238281 L 50.316406 16.238281 L 50.316406 14.820312 L 47.769531 14.820312 Z "/>
<path style=" stroke:none;fill-rule:evenodd;fill:rgb(45.098039%,45.098039%,87.058824%);fill-opacity:1;" d="M 47.769531 18.507812 L 50.316406 18.507812 L 50.316406 17.089844 L 47.769531 17.089844 Z "/>
<path style=" stroke:none;fill-rule:evenodd;fill:rgb(45.098039%,45.098039%,87.058824%);fill-opacity:1;" d="M 47.769531 20.773438 L 50.316406 20.773438 L 50.316406 19.355469 L 47.769531 19.355469 Z "/>
<path style=" stroke:none;fill-rule:evenodd;fill:rgb(45.098039%,45.098039%,87.058824%);fill-opacity:1;" d="M 47.769531 23.042969 L 50.316406 23.042969 L 50.316406 21.625 L 47.769531 21.625 Z "/>
<path style=" stroke:none;fill-rule:evenodd;fill:rgb(45.098039%,45.098039%,87.058824%);fill-opacity:1;" d="M 50.9375 46.375 L 52.355469 46.375 L 52.355469 43.828125 L 50.9375 43.828125 Z "/>
<path style=" stroke:none;fill-rule:evenodd;fill:rgb(45.098039%,45.098039%,87.058824%);fill-opacity:1;" d="M 53.207031 46.375 L 54.625 46.375 L 54.625 43.828125 L 53.207031 43.828125 Z "/>
<path style=" stroke:none;fill-rule:evenodd;fill:rgb(45.098039%,45.098039%,87.058824%);fill-opacity:1;" d="M 55.476562 46.375 L 56.894531 46.375 L 56.894531 43.828125 L 55.476562 43.828125 Z "/>
<path style=" stroke:none;fill-rule:evenodd;fill:rgb(45.098039%,45.098039%,87.058824%);fill-opacity:1;" d="M 57.742188 46.375 L 59.160156 46.375 L 59.160156 43.828125 L 57.742188 43.828125 Z "/>
<path style=" stroke:none;fill-rule:evenodd;fill:rgb(45.098039%,45.098039%,87.058824%);fill-opacity:1;" d="M 57.742188 50.910156 L 59.160156 50.910156 L 59.160156 48.363281 L 57.742188 48.363281 Z "/>
<path style=" stroke:none;fill-rule:evenodd;fill:rgb(45.098039%,45.098039%,87.058824%);fill-opacity:1;" d="M 55.476562 50.910156 L 56.894531 50.910156 L 56.894531 48.363281 L 55.476562 48.363281 Z "/>
<path style=" stroke:none;fill-rule:evenodd;fill:rgb(45.098039%,45.098039%,87.058824%);fill-opacity:1;" d="M 53.207031 50.910156 L 54.625 50.910156 L 54.625 48.363281 L 53.207031 48.363281 Z "/>
<path style=" stroke:none;fill-rule:evenodd;fill:rgb(45.098039%,45.098039%,87.058824%);fill-opacity:1;" d="M 50.9375 50.910156 L 52.355469 50.910156 L 52.355469 48.363281 L 50.9375 48.363281 Z "/>
<path style=" stroke:none;fill-rule:evenodd;fill:rgb(45.098039%,45.098039%,87.058824%);fill-opacity:1;" d="M 21.742188 30.03125 L 23.160156 30.03125 L 23.160156 27.484375 L 21.742188 27.484375 Z "/>
<path style=" stroke:none;fill-rule:evenodd;fill:rgb(45.098039%,45.098039%,87.058824%);fill-opacity:1;" d="M 19.476562 30.03125 L 20.894531 30.03125 L 20.894531 27.484375 L 19.476562 27.484375 Z "/>
<path style=" stroke:none;fill-rule:evenodd;fill:rgb(45.098039%,45.098039%,87.058824%);fill-opacity:1;" d="M 17.207031 30.03125 L 18.625 30.03125 L 18.625 27.484375 L 17.207031 27.484375 Z "/>
<path style=" stroke:none;fill-rule:evenodd;fill:rgb(45.098039%,45.098039%,87.058824%);fill-opacity:1;" d="M 14.9375 30.03125 L 16.355469 30.03125 L 16.355469 27.484375 L 14.9375 27.484375 Z "/>
<path style=" stroke:none;fill-rule:evenodd;fill:rgb(45.098039%,45.098039%,87.058824%);fill-opacity:1;" d="M 14.9375 25.496094 L 16.355469 25.496094 L 16.355469 22.949219 L 14.9375 22.949219 Z "/>
<path style=" stroke:none;fill-rule:evenodd;fill:rgb(45.098039%,45.098039%,87.058824%);fill-opacity:1;" d="M 17.207031 25.496094 L 18.625 25.496094 L 18.625 22.949219 L 17.207031 22.949219 Z "/>
<path style=" stroke:none;fill-rule:evenodd;fill:rgb(45.098039%,45.098039%,87.058824%);fill-opacity:1;" d="M 19.476562 25.496094 L 20.894531 25.496094 L 20.894531 22.949219 L 19.476562 22.949219 Z "/>
<path style=" stroke:none;fill-rule:evenodd;fill:rgb(45.098039%,45.098039%,87.058824%);fill-opacity:1;" d="M 21.742188 25.496094 L 23.160156 25.496094 L 23.160156 22.949219 L 21.742188 22.949219 Z "/>
</g>
</svg>
