<?xml version="1.0" encoding="UTF-8"?>
<svg xmlns="http://www.w3.org/2000/svg" xmlns:xlink="http://www.w3.org/1999/xlink" width="55pt" height="71pt" viewBox="0 0 55 71" version="1.1">
<g id="surface1">
<path style=" stroke:none;fill-rule:evenodd;fill:rgb(45.098039%,45.098039%,87.058824%);fill-opacity:1;" d="M 1.320312 47.414062 L 3.589844 47.414062 L 3.589844 45.144531 L 1.320312 45.144531 Z "/>
<path style=" stroke:none;fill-rule:evenodd;fill:rgb(45.098039%,45.098039%,87.058824%);fill-opacity:1;" d="M 1.320312 43.164062 L 3.589844 43.164062 L 3.589844 40.894531 L 1.320312 40.894531 Z "/>
<path style=" stroke:none;fill-rule:evenodd;fill:rgb(45.098039%,45.098039%,87.058824%);fill-opacity:1;" d="M 8.519531 43.164062 L 10.789062 43.164062 L 10.789062 40.894531 L 8.519531 40.894531 Z "/>
<path style=" stroke:none;fill-rule:evenodd;fill:rgb(45.098039%,45.098039%,87.058824%);fill-opacity:1;" d="M 8.519531 47.414062 L 10.789062 47.414062 L 10.789062 45.144531 L 8.519531 45.144531 Z "/>
<path style=" stroke:none;fill-rule:evenodd;fill:rgb(45.098039%,45.098039%,87.058824%);fill-opacity:1;" d="M 15.71875 47.414062 L 17.988281 47.414062 L 17.988281 45.144531 L 15.71875 45.144531 Z "/>
<path style=" stroke:none;fill-rule:evenodd;fill:rgb(45.098039%,45.098039%,87.058824%);fill-opacity:1;" d="M 15.71875 43.164062 L 17.988281 43.164062 L 17.988281 40.894531 L 15.71875 40.894531 Z "/>
<path style=" stroke:none;fill-rule:evenodd;fill:rgb(45.098039%,45.098039%,87.058824%);fill-opacity:1;" d="M 22.917969 43.164062 L 25.1875 43.164062 L 25.1875 40.894531 L 22.917969 40.894531 Z "/>
<path style=" stroke:none;fill-rule:evenodd;fill:rgb(45.098039%,45.098039%,87.058824%);fill-opacity:1;" d="M 22.917969 47.414062 L 25.1875 47.414062 L 25.1875 45.144531 L 22.917969 45.144531 Z "/>
<path style=" stroke:none;fill-rule:evenodd;fill:rgb(45.098039%,45.098039%,87.058824%);fill-opacity:1;" d="M 30.117188 47.414062 L 32.386719 47.414062 L 32.386719 45.144531 L 30.117188 45.144531 Z "/>
<path style=" stroke:none;fill-rule:evenodd;fill:rgb(45.098039%,45.098039%,87.058824%);fill-opacity:1;" d="M 30.117188 43.164062 L 32.386719 43.164062 L 32.386719 40.894531 L 30.117188 40.894531 Z "/>
<path style=" stroke:none;fill-rule:evenodd;fill:rgb(45.098039%,45.098039%,87.058824%);fill-opacity:1;" d="M 37.320312 43.164062 L 39.589844 43.164062 L 39.589844 40.894531 L 37.320312 40.894531 Z "/>
<path style=" stroke:none;fill-rule:evenodd;fill:rgb(45.098039%,45.098039%,87.058824%);fill-opacity:1;" d="M 37.320312 47.414062 L 39.589844 47.414062 L 39.589844 45.144531 L 37.320312 45.144531 Z "/>
<path style=" stroke:none;fill-rule:evenodd;fill:rgb(45.098039%,45.098039%,87.058824%);fill-opacity:1;" d="M 44.519531 47.414062 L 46.789062 47.414062 L 46.789062 45.144531 L 44.519531 45.144531 Z "/>
<path style=" stroke:none;fill-rule:evenodd;fill:rgb(45.098039%,45.098039%,87.058824%);fill-opacity:1;" d="M 44.519531 43.164062 L 46.789062 43.164062 L 46.789062 40.894531 L 44.519531 40.894531 Z "/>
<path style=" stroke:none;fill-rule:evenodd;fill:rgb(45.098039%,45.098039%,87.058824%);fill-opacity:1;" d="M 51.71875 43.164062 L 53.988281 43.164062 L 53.988281 40.894531 L 51.71875 40.894531 Z "/>
<path style=" stroke:none;fill-rule:evenodd;fill:rgb(45.098039%,45.098039%,87.058824%);fill-opacity:1;" d="M 51.71875 47.414062 L 53.988281 47.414062 L 53.988281 45.144531 L 51.71875 45.144531 Z "/>
<path style=" stroke:none;fill-rule:evenodd;fill:rgb(45.098039%,45.098039%,87.058824%);fill-opacity:1;" d="M 51.71875 7.8125 L 53.988281 7.8125 L 53.988281 5.542969 L 51.71875 5.542969 Z "/>
<path style=" stroke:none;fill-rule:evenodd;fill:rgb(45.098039%,45.098039%,87.058824%);fill-opacity:1;" d="M 51.71875 3.566406 L 53.988281 3.566406 L 53.988281 1.296875 L 51.71875 1.296875 Z "/>
<path style=" stroke:none;fill-rule:evenodd;fill:rgb(45.098039%,45.098039%,87.058824%);fill-opacity:1;" d="M 44.519531 3.566406 L 46.789062 3.566406 L 46.789062 1.296875 L 44.519531 1.296875 Z "/>
<path style=" stroke:none;fill-rule:evenodd;fill:rgb(45.098039%,45.098039%,87.058824%);fill-opacity:1;" d="M 44.519531 7.8125 L 46.789062 7.8125 L 46.789062 5.542969 L 44.519531 5.542969 Z "/>
<path style=" stroke:none;fill-rule:evenodd;fill:rgb(45.098039%,45.098039%,87.058824%);fill-opacity:1;" d="M 37.320312 7.8125 L 39.589844 7.8125 L 39.589844 5.542969 L 37.320312 5.542969 Z "/>
<path style=" stroke:none;fill-rule:evenodd;fill:rgb(45.098039%,45.098039%,87.058824%);fill-opacity:1;" d="M 37.320312 3.566406 L 39.589844 3.566406 L 39.589844 1.296875 L 37.320312 1.296875 Z "/>
<path style=" stroke:none;fill-rule:evenodd;fill:rgb(45.098039%,45.098039%,87.058824%);fill-opacity:1;" d="M 30.117188 3.566406 L 32.386719 3.566406 L 32.386719 1.296875 L 30.117188 1.296875 Z "/>
<path style=" stroke:none;fill-rule:evenodd;fill:rgb(45.098039%,45.098039%,87.058824%);fill-opacity:1;" d="M 30.117188 7.8125 L 32.386719 7.8125 L 32.386719 5.542969 L 30.117188 5.542969 Z "/>
<path style=" stroke:none;fill-rule:evenodd;fill:rgb(45.098039%,45.098039%,87.058824%);fill-opacity:1;" d="M 22.917969 7.8125 L 25.1875 7.8125 L 25.1875 5.542969 L 22.917969 5.542969 Z "/>
<path style=" stroke:none;fill-rule:evenodd;fill:rgb(45.098039%,45.098039%,87.058824%);fill-opacity:1;" d="M 22.917969 3.566406 L 25.1875 3.566406 L 25.1875 1.296875 L 22.917969 1.296875 Z "/>
<path style=" stroke:none;fill-rule:evenodd;fill:rgb(45.098039%,45.098039%,87.058824%);fill-opacity:1;" d="M 15.71875 3.566406 L 17.988281 3.566406 L 17.988281 1.296875 L 15.71875 1.296875 Z "/>
<path style=" stroke:none;fill-rule:evenodd;fill:rgb(45.098039%,45.098039%,87.058824%);fill-opacity:1;" d="M 15.71875 7.8125 L 17.988281 7.8125 L 17.988281 5.542969 L 15.71875 5.542969 Z "/>
<path style=" stroke:none;fill-rule:evenodd;fill:rgb(45.098039%,45.098039%,87.058824%);fill-opacity:1;" d="M 8.519531 7.8125 L 10.789062 7.8125 L 10.789062 5.542969 L 8.519531 5.542969 Z "/>
<path style=" stroke:none;fill-rule:evenodd;fill:rgb(45.098039%,45.098039%,87.058824%);fill-opacity:1;" d="M 8.519531 3.566406 L 10.789062 3.566406 L 10.789062 1.296875 L 8.519531 1.296875 Z "/>
<path style=" stroke:none;fill-rule:evenodd;fill:rgb(45.098039%,45.098039%,87.058824%);fill-opacity:1;" d="M 1.320312 3.566406 L 3.589844 3.566406 L 3.589844 1.296875 L 1.320312 1.296875 Z "/>
<path style=" stroke:none;fill-rule:evenodd;fill:rgb(45.098039%,45.098039%,87.058824%);fill-opacity:1;" d="M 1.320312 7.8125 L 3.589844 7.8125 L 3.589844 5.542969 L 1.320312 5.542969 Z "/>
<path style=" stroke:none;fill-rule:evenodd;fill:rgb(45.098039%,45.098039%,87.058824%);fill-opacity:1;" d="M 16.335938 25.164062 L 17.753906 25.164062 L 17.753906 22.617188 L 16.335938 22.617188 Z "/>
<path style=" stroke:none;fill-rule:evenodd;fill:rgb(45.098039%,45.098039%,87.058824%);fill-opacity:1;" d="M 18.605469 25.164062 L 20.023438 25.164062 L 20.023438 22.617188 L 18.605469 22.617188 Z "/>
<path style=" stroke:none;fill-rule:evenodd;fill:rgb(45.098039%,45.098039%,87.058824%);fill-opacity:1;" d="M 20.875 25.164062 L 22.292969 25.164062 L 22.292969 22.617188 L 20.875 22.617188 Z "/>
<path style=" stroke:none;fill-rule:evenodd;fill:rgb(45.098039%,45.098039%,87.058824%);fill-opacity:1;" d="M 23.140625 25.164062 L 24.558594 25.164062 L 24.558594 22.617188 L 23.140625 22.617188 Z "/>
<path style=" stroke:none;fill-rule:evenodd;fill:rgb(45.098039%,45.098039%,87.058824%);fill-opacity:1;" d="M 23.140625 29.699219 L 24.558594 29.699219 L 24.558594 27.152344 L 23.140625 27.152344 Z "/>
<path style=" stroke:none;fill-rule:evenodd;fill:rgb(45.098039%,45.098039%,87.058824%);fill-opacity:1;" d="M 20.875 29.699219 L 22.292969 29.699219 L 22.292969 27.152344 L 20.875 27.152344 Z "/>
<path style=" stroke:none;fill-rule:evenodd;fill:rgb(45.098039%,45.098039%,87.058824%);fill-opacity:1;" d="M 18.605469 29.699219 L 20.023438 29.699219 L 20.023438 27.152344 L 18.605469 27.152344 Z "/>
<path style=" stroke:none;fill-rule:evenodd;fill:rgb(45.098039%,45.098039%,87.058824%);fill-opacity:1;" d="M 16.335938 29.699219 L 17.753906 29.699219 L 17.753906 27.152344 L 16.335938 27.152344 Z "/>
<path style=" stroke:none;fill-rule:evenodd;fill:rgb(45.098039%,45.098039%,87.058824%);fill-opacity:1;" d="M 37.9375 29.699219 L 39.355469 29.699219 L 39.355469 27.152344 L 37.9375 27.152344 Z "/>
<path style=" stroke:none;fill-rule:evenodd;fill:rgb(45.098039%,45.098039%,87.058824%);fill-opacity:1;" d="M 40.207031 29.699219 L 41.625 29.699219 L 41.625 27.152344 L 40.207031 27.152344 Z "/>
<path style=" stroke:none;fill-rule:evenodd;fill:rgb(45.098039%,45.098039%,87.058824%);fill-opacity:1;" d="M 42.472656 29.699219 L 43.890625 29.699219 L 43.890625 27.152344 L 42.472656 27.152344 Z "/>
<path style=" stroke:none;fill-rule:evenodd;fill:rgb(45.098039%,45.098039%,87.058824%);fill-opacity:1;" d="M 44.742188 29.699219 L 46.160156 29.699219 L 46.160156 27.152344 L 44.742188 27.152344 Z "/>
<path style=" stroke:none;fill-rule:evenodd;fill:rgb(45.098039%,45.098039%,87.058824%);fill-opacity:1;" d="M 44.742188 25.164062 L 46.160156 25.164062 L 46.160156 22.617188 L 44.742188 22.617188 Z "/>
<path style=" stroke:none;fill-rule:evenodd;fill:rgb(45.098039%,45.098039%,87.058824%);fill-opacity:1;" d="M 42.472656 25.164062 L 43.890625 25.164062 L 43.890625 22.617188 L 42.472656 22.617188 Z "/>
<path style=" stroke:none;fill-rule:evenodd;fill:rgb(45.098039%,45.098039%,87.058824%);fill-opacity:1;" d="M 40.207031 25.164062 L 41.625 25.164062 L 41.625 22.617188 L 40.207031 22.617188 Z "/>
<path style=" stroke:none;fill-rule:evenodd;fill:rgb(45.098039%,45.098039%,87.058824%);fill-opacity:1;" d="M 37.9375 25.164062 L 39.355469 25.164062 L 39.355469 22.617188 L 37.9375 22.617188 Z "/>
<path style=" stroke:none;fill-rule:evenodd;fill:rgb(45.098039%,45.098039%,87.058824%);fill-opacity:1;" d="M 37.9375 64.761719 L 39.355469 64.761719 L 39.355469 62.214844 L 37.9375 62.214844 Z "/>
<path style=" stroke:none;fill-rule:evenodd;fill:rgb(45.098039%,45.098039%,87.058824%);fill-opacity:1;" d="M 40.207031 64.761719 L 41.625 64.761719 L 41.625 62.214844 L 40.207031 62.214844 Z "/>
<path style=" stroke:none;fill-rule:evenodd;fill:rgb(45.098039%,45.098039%,87.058824%);fill-opacity:1;" d="M 42.472656 64.761719 L 43.890625 64.761719 L 43.890625 62.214844 L 42.472656 62.214844 Z "/>
<path style=" stroke:none;fill-rule:evenodd;fill:rgb(45.098039%,45.098039%,87.058824%);fill-opacity:1;" d="M 44.742188 64.761719 L 46.160156 64.761719 L 46.160156 62.214844 L 44.742188 62.214844 Z "/>
<path style=" stroke:none;fill-rule:evenodd;fill:rgb(45.098039%,45.098039%,87.058824%);fill-opacity:1;" d="M 44.742188 69.296875 L 46.160156 69.296875 L 46.160156 66.75 L 44.742188 66.75 Z "/>
<path style=" stroke:none;fill-rule:evenodd;fill:rgb(45.098039%,45.098039%,87.058824%);fill-opacity:1;" d="M 42.472656 69.296875 L 43.890625 69.296875 L 43.890625 66.75 L 42.472656 66.75 Z "/>
<path style=" stroke:none;fill-rule:evenodd;fill:rgb(45.098039%,45.098039%,87.058824%);fill-opacity:1;" d="M 40.207031 69.296875 L 41.625 69.296875 L 41.625 66.75 L 40.207031 66.75 Z "/>
<path style=" stroke:none;fill-rule:evenodd;fill:rgb(45.098039%,45.098039%,87.058824%);fill-opacity:1;" d="M 37.9375 69.296875 L 39.355469 69.296875 L 39.355469 66.75 L 37.9375 66.75 Z "/>
<path style=" stroke:none;fill-rule:evenodd;fill:rgb(45.098039%,45.098039%,87.058824%);fill-opacity:1;" d="M 23.140625 69.296875 L 24.558594 69.296875 L 24.558594 66.75 L 23.140625 66.75 Z "/>
<path style=" stroke:none;fill-rule:evenodd;fill:rgb(45.098039%,45.098039%,87.058824%);fill-opacity:1;" d="M 20.875 69.296875 L 22.292969 69.296875 L 22.292969 66.75 L 20.875 66.75 Z "/>
<path style=" stroke:none;fill-rule:evenodd;fill:rgb(45.098039%,45.098039%,87.058824%);fill-opacity:1;" d="M 18.605469 69.296875 L 20.023438 69.296875 L 20.023438 66.75 L 18.605469 66.75 Z "/>
<path style=" stroke:none;fill-rule:evenodd;fill:rgb(45.098039%,45.098039%,87.058824%);fill-opacity:1;" d="M 16.335938 69.296875 L 17.753906 69.296875 L 17.753906 66.75 L 16.335938 66.75 Z "/>
<path style=" stroke:none;fill-rule:evenodd;fill:rgb(45.098039%,45.098039%,87.058824%);fill-opacity:1;" d="M 16.335938 64.761719 L 17.753906 64.761719 L 17.753906 62.214844 L 16.335938 62.214844 Z "/>
<path style=" stroke:none;fill-rule:evenodd;fill:rgb(45.098039%,45.098039%,87.058824%);fill-opacity:1;" d="M 18.605469 64.761719 L 20.023438 64.761719 L 20.023438 62.214844 L 18.605469 62.214844 Z "/>
<path style=" stroke:none;fill-rule:evenodd;fill:rgb(45.098039%,45.098039%,87.058824%);fill-opacity:1;" d="M 20.875 64.761719 L 22.292969 64.761719 L 22.292969 62.214844 L 20.875 62.214844 Z "/>
<path style=" stroke:none;fill-rule:evenodd;fill:rgb(45.098039%,45.098039%,87.058824%);fill-opacity:1;" d="M 23.140625 64.761719 L 24.558594 64.761719 L 24.558594 62.214844 L 23.140625 62.214844 Z "/>
</g>
</svg>
