<?xml version="1.0" encoding="UTF-8"?>
<svg xmlns="http://www.w3.org/2000/svg" xmlns:xlink="http://www.w3.org/1999/xlink" width="13pt" height="15pt" viewBox="0 0 13 15" version="1.1">
<g id="surface1">
<path style=" stroke:none;fill-rule:evenodd;fill:rgb(45.098039%,45.098039%,87.058824%);fill-opacity:1;" d="M 0.3125 14.644531 L 4.28125 14.644531 L 4.28125 11.527344 L 0.3125 11.527344 Z "/>
<path style=" stroke:none;fill-rule:evenodd;fill:rgb(45.098039%,45.098039%,87.058824%);fill-opacity:1;" d="M 0.3125 10.105469 L 4.28125 10.105469 L 4.28125 6.988281 L 0.3125 6.988281 Z "/>
<path style=" stroke:none;fill-rule:evenodd;fill:rgb(45.098039%,45.098039%,87.058824%);fill-opacity:1;" d="M 8.824219 10.105469 L 12.792969 10.105469 L 12.792969 6.988281 L 8.824219 6.988281 Z "/>
<path style=" stroke:none;fill-rule:evenodd;fill:rgb(45.098039%,45.098039%,87.058824%);fill-opacity:1;" d="M 8.824219 14.644531 L 12.792969 14.644531 L 12.792969 11.527344 L 8.824219 11.527344 Z "/>
<path style=" stroke:none;fill-rule:evenodd;fill:rgb(45.098039%,45.098039%,87.058824%);fill-opacity:1;" d="M 9.597656 6.09375 L 12.144531 6.09375 L 12.144531 4.105469 L 9.597656 4.105469 Z "/>
<path style=" stroke:none;fill-rule:evenodd;fill:rgb(45.098039%,45.098039%,87.058824%);fill-opacity:1;" d="M 9.597656 2.40625 L 12.144531 2.40625 L 12.144531 0.417969 L 9.597656 0.417969 Z "/>
<path style=" stroke:none;fill-rule:evenodd;fill:rgb(45.098039%,45.098039%,87.058824%);fill-opacity:1;" d="M 4.917969 2.40625 L 7.464844 2.40625 L 7.464844 0.417969 L 4.917969 0.417969 Z "/>
<path style=" stroke:none;fill-rule:evenodd;fill:rgb(45.098039%,45.098039%,87.058824%);fill-opacity:1;" d="M 4.917969 6.09375 L 7.464844 6.09375 L 7.464844 4.105469 L 4.917969 4.105469 Z "/>
<path style=" stroke:none;fill-rule:evenodd;fill:rgb(45.098039%,45.098039%,87.058824%);fill-opacity:1;" d="M 0.597656 6.09375 L 3.144531 6.09375 L 3.144531 4.105469 L 0.597656 4.105469 Z "/>
<path style=" stroke:none;fill-rule:evenodd;fill:rgb(45.098039%,45.098039%,87.058824%);fill-opacity:1;" d="M 0.597656 2.40625 L 3.144531 2.40625 L 3.144531 0.417969 L 0.597656 0.417969 Z "/>
</g>
</svg>
