<?xml version="1.0" encoding="UTF-8"?>
<svg xmlns="http://www.w3.org/2000/svg" xmlns:xlink="http://www.w3.org/1999/xlink" width="8pt" height="28pt" viewBox="0 0 8 28" version="1.1">
<g id="surface1">
<path style=" stroke:none;fill-rule:evenodd;fill:rgb(45.098039%,45.098039%,87.058824%);fill-opacity:1;" d="M 0.207031 27.324219 L 1.625 27.324219 L 1.625 25.480469 L 0.207031 25.480469 Z "/>
<path style=" stroke:none;fill-rule:evenodd;fill:rgb(45.098039%,45.098039%,87.058824%);fill-opacity:1;" d="M 2.476562 27.324219 L 3.894531 27.324219 L 3.894531 25.480469 L 2.476562 25.480469 Z "/>
<path style=" stroke:none;fill-rule:evenodd;fill:rgb(45.098039%,45.098039%,87.058824%);fill-opacity:1;" d="M 4.734375 27.324219 L 6.152344 27.324219 L 6.152344 25.480469 L 4.734375 25.480469 Z "/>
<path style=" stroke:none;fill-rule:evenodd;fill:rgb(45.098039%,45.098039%,87.058824%);fill-opacity:1;" d="M 7.003906 27.324219 L 8.421875 27.324219 L 8.421875 25.480469 L 7.003906 25.480469 Z "/>
<path style=" stroke:none;fill-rule:evenodd;fill:rgb(45.098039%,45.098039%,87.058824%);fill-opacity:1;" d="M 7.003906 23.78125 L 8.421875 23.78125 L 8.421875 21.9375 L 7.003906 21.9375 Z "/>
<path style=" stroke:none;fill-rule:evenodd;fill:rgb(45.098039%,45.098039%,87.058824%);fill-opacity:1;" d="M 4.734375 23.78125 L 6.152344 23.78125 L 6.152344 21.9375 L 4.734375 21.9375 Z "/>
<path style=" stroke:none;fill-rule:evenodd;fill:rgb(45.098039%,45.098039%,87.058824%);fill-opacity:1;" d="M 2.476562 23.78125 L 3.894531 23.78125 L 3.894531 21.9375 L 2.476562 21.9375 Z "/>
<path style=" stroke:none;fill-rule:evenodd;fill:rgb(45.098039%,45.098039%,87.058824%);fill-opacity:1;" d="M 0.207031 23.78125 L 1.625 23.78125 L 1.625 21.9375 L 0.207031 21.9375 Z "/>
<path style=" stroke:none;fill-rule:evenodd;fill:rgb(45.098039%,45.098039%,87.058824%);fill-opacity:1;" d="M 0.207031 5.722656 L 1.625 5.722656 L 1.625 3.878906 L 0.207031 3.878906 Z "/>
<path style=" stroke:none;fill-rule:evenodd;fill:rgb(45.098039%,45.098039%,87.058824%);fill-opacity:1;" d="M 2.476562 5.722656 L 3.894531 5.722656 L 3.894531 3.878906 L 2.476562 3.878906 Z "/>
<path style=" stroke:none;fill-rule:evenodd;fill:rgb(45.098039%,45.098039%,87.058824%);fill-opacity:1;" d="M 4.734375 5.722656 L 6.152344 5.722656 L 6.152344 3.878906 L 4.734375 3.878906 Z "/>
<path style=" stroke:none;fill-rule:evenodd;fill:rgb(45.098039%,45.098039%,87.058824%);fill-opacity:1;" d="M 7.003906 5.722656 L 8.421875 5.722656 L 8.421875 3.878906 L 7.003906 3.878906 Z "/>
<path style=" stroke:none;fill-rule:evenodd;fill:rgb(45.098039%,45.098039%,87.058824%);fill-opacity:1;" d="M 7.003906 2.179688 L 8.421875 2.179688 L 8.421875 0.335938 L 7.003906 0.335938 Z "/>
<path style=" stroke:none;fill-rule:evenodd;fill:rgb(45.098039%,45.098039%,87.058824%);fill-opacity:1;" d="M 4.734375 2.179688 L 6.152344 2.179688 L 6.152344 0.335938 L 4.734375 0.335938 Z "/>
<path style=" stroke:none;fill-rule:evenodd;fill:rgb(45.098039%,45.098039%,87.058824%);fill-opacity:1;" d="M 2.476562 2.179688 L 3.894531 2.179688 L 3.894531 0.335938 L 2.476562 0.335938 Z "/>
<path style=" stroke:none;fill-rule:evenodd;fill:rgb(45.098039%,45.098039%,87.058824%);fill-opacity:1;" d="M 0.207031 2.179688 L 1.625 2.179688 L 1.625 0.335938 L 0.207031 0.335938 Z "/>
</g>
</svg>
