<?xml version="1.0" encoding="UTF-8" standalone="no"?>
<!-- Created with Inkscape (http://www.inkscape.org/) -->

<svg
   xmlns:dc="http://purl.org/dc/elements/1.1/"
   xmlns:cc="http://creativecommons.org/ns#"
   xmlns:rdf="http://www.w3.org/1999/02/22-rdf-syntax-ns#"
   xmlns:svg="http://www.w3.org/2000/svg"
   xmlns="http://www.w3.org/2000/svg"
   version="1.1"
   width="27pt"
   height="10pt"
   viewBox="0 0 27 10"
   id="svg4113">
  <metadata
     id="metadata4144">
    <rdf:RDF>
      <cc:Work
         rdf:about="">
        <dc:format>image/svg+xml</dc:format>
        <dc:type
           rdf:resource="http://purl.org/dc/dcmitype/StillImage" />
        <dc:title></dc:title>
      </cc:Work>
    </rdf:RDF>
  </metadata>
  <defs
     id="defs4142" />
  <g
     id="surface2923">
    <path
       d="m 15.627734,7.121094 2.650782,0 0,-0.84375 -2.650782,0 z"
       id="path4116"
       style="fill:none;stroke:#0000ff;stroke-width:0.08;stroke-miterlimit:4;stroke-opacity:1;stroke-dasharray:none" />
    <path
       d="m 15.627734,4.429687 2.650782,0 0,-0.84375 -2.650782,0 z"
       id="path4118"
       style="fill:none;stroke:#0000ff;stroke-width:0.08;stroke-miterlimit:4;stroke-opacity:1;stroke-dasharray:none" />
    <path
       d="m 15.627734,1.734375 2.650782,0 0,-0.84375 -2.650782,0 z"
       id="path4120"
       style="fill:none;stroke:#0000ff;stroke-width:0.08;stroke-miterlimit:4;stroke-opacity:1;stroke-dasharray:none" />
    <path
       d="m 22.998828,1.734375 2.650782,0 0,-0.84375 -2.650782,0 z"
       id="path4122"
       style="fill:none;stroke:#0000ff;stroke-width:0.08;stroke-miterlimit:4;stroke-opacity:1;stroke-dasharray:none" />
    <path
       d="m 22.998828,7.121094 2.650782,0 0,-0.84375 -2.650782,0 z"
       id="path4124"
       style="fill:none;stroke:#0000ff;stroke-width:0.08;stroke-miterlimit:4;stroke-opacity:1;stroke-dasharray:none" />
    <path
       d="m 9.6172068,8.9100196 3.0976172,0 0,-0.4176952 -3.0976172,0 z"
       id="path4126"
       style="fill:none;stroke:#0000ff;stroke-width:0.08;stroke-miterlimit:4;stroke-opacity:1;stroke-dasharray:none" />
    <path
       d="m 9.6172068,7.0662696 3.0976172,0 0,-0.4176952 -3.0976172,0 z"
       id="path4128"
       style="fill:none;stroke:#0000ff;stroke-width:0.08;stroke-miterlimit:4;stroke-opacity:1;stroke-dasharray:none" />
    <path
       d="m 9.6172068,5.2225196 3.0976172,0 0,-0.4176952 -3.0976172,0 z"
       id="path4130"
       style="fill:none;stroke:#0000ff;stroke-width:0.08;stroke-miterlimit:4;stroke-opacity:1;stroke-dasharray:none" />
    <path
       d="m 9.6172068,3.3826756 3.0976172,0 0,-0.4176952 -3.0976172,0 z"
       id="path4132"
       style="fill:none;stroke:#0000ff;stroke-width:0.08;stroke-miterlimit:4;stroke-opacity:1;stroke-dasharray:none" />
    <path
       d="m 9.6172068,1.5389256 3.0976172,0 0,-0.4176952 -3.0976172,0 z"
       id="path4134"
       style="fill:none;stroke:#0000ff;stroke-width:0.08;stroke-miterlimit:4;stroke-opacity:1;stroke-dasharray:none" />
    <path
       d="m 1.5998631,4.0721878 3.5307428,0 0,-3.21468755 -3.5307428,0 z"
       id="path4136"
       style="fill:none;stroke:#0000ff;stroke-width:0.08;stroke-miterlimit:4;stroke-opacity:1;stroke-dasharray:none" />
    <path
       d="m 1.5998631,9.1698438 3.5307428,0 0,-3.2146875 -3.5307428,0 z"
       id="path4138"
       style="fill:none;stroke:#0000ff;stroke-width:0.08;stroke-miterlimit:4;stroke-opacity:1;stroke-dasharray:none" />
  </g>
</svg>
